<?xml version="1.0" encoding="utf-8"?>
<!-- Generator: Adobe Illustrator 26.0.1, SVG Export Plug-In . SVG Version: 6.00 Build 0)  -->
<!DOCTYPE svg PUBLIC "-//W3C//DTD SVG 1.1//EN" "http://www.w3.org/Graphics/SVG/1.1/DTD/svg11.dtd" [
	<!ENTITY ns_extend "http://ns.adobe.com/Extensibility/1.0/">
	<!ENTITY ns_ai "http://ns.adobe.com/AdobeIllustrator/10.0/">
	<!ENTITY ns_graphs "http://ns.adobe.com/Graphs/1.0/">
	<!ENTITY ns_vars "http://ns.adobe.com/Variables/1.0/">
	<!ENTITY ns_imrep "http://ns.adobe.com/ImageReplacement/1.0/">
	<!ENTITY ns_sfw "http://ns.adobe.com/SaveForWeb/1.0/">
	<!ENTITY ns_custom "http://ns.adobe.com/GenericCustomNamespace/1.0/">
	<!ENTITY ns_adobe_xpath "http://ns.adobe.com/XPath/1.0/">
]>
<svg version="1.1" xmlns:x="&ns_extend;" xmlns:i="&ns_ai;" xmlns:graph="&ns_graphs;"
	 xmlns="http://www.w3.org/2000/svg" xmlns:xlink="http://www.w3.org/1999/xlink" x="0px" y="0px" width="1000px" height="675px"
	 viewBox="0 0 1000 675" style="enable-background:new 0 0 1000 675;" xml:space="preserve">
<style type="text/css">
	.st0{fill:#FFFFFF;}
	.st1{fill:#D2374E;}
	.st2{fill:none;stroke:#D2374E;stroke-width:2;stroke-linecap:round;stroke-linejoin:round;}
	.st3{fill:none;stroke:#D2374E;stroke-width:2;stroke-linecap:round;stroke-linejoin:round;stroke-dasharray:3.4615,5.7692;}
	.st4{fill:none;stroke:#D2374E;stroke-width:2;stroke-linecap:round;stroke-linejoin:round;stroke-miterlimit:10;}
	.st5{fill:none;stroke:#D2374E;stroke-width:3.25;stroke-linecap:round;stroke-linejoin:round;}
	.st6{fill:none;stroke:#D2374E;stroke-width:3.25;stroke-linecap:round;stroke-linejoin:round;stroke-dasharray:4.0306,7.0535;}
	.st7{fill:none;stroke:#D2374E;stroke-width:3.25;stroke-linecap:round;stroke-linejoin:round;stroke-dasharray:3.9682,6.9444;}
	.st8{fill:none;stroke:#D2374E;stroke-width:3.25;stroke-linecap:round;stroke-linejoin:round;stroke-dasharray:4.0995,7.1742;}
	.st9{fill:none;stroke:#D2374E;stroke-width:3.25;stroke-linecap:round;stroke-linejoin:round;stroke-dasharray:3.9444,6.9026;}
	.st10{fill:none;stroke:#D2374E;stroke-width:3.25;stroke-linecap:round;stroke-linejoin:round;stroke-dasharray:3.9771,6.96;}
	.st11{fill:none;stroke:#D2374E;stroke-width:3.25;stroke-linecap:round;stroke-linejoin:round;stroke-dasharray:3.9535,6.9187;}
	.st12{fill:none;stroke:#D2374E;stroke-width:3.25;stroke-linecap:round;stroke-linejoin:round;stroke-dasharray:3.9087,6.8402;}
	.st13{fill:none;stroke:#D2374E;stroke-width:3.25;stroke-linecap:round;stroke-linejoin:round;stroke-dasharray:3.9067,6.8368;}
	.st14{fill:none;stroke:#D2374E;stroke-width:3.25;stroke-linecap:round;stroke-linejoin:round;stroke-dasharray:4.0524,7.0917;}
	.st15{fill:none;stroke:#D2374E;stroke-width:3.25;stroke-linecap:round;stroke-linejoin:round;stroke-dasharray:3.9981,6.9967;}
	.st16{fill:none;stroke:#D2374E;stroke-width:3.25;stroke-linecap:round;stroke-linejoin:round;stroke-dasharray:4.0217,7.0379;}
	.st17{fill:none;stroke:#D2374E;stroke-width:3.25;stroke-linecap:round;stroke-linejoin:round;stroke-dasharray:4.0245,7.043;}
	.st18{fill:none;stroke:#D2374E;stroke-width:3.25;stroke-linecap:round;stroke-linejoin:round;stroke-dasharray:4.0038,7.0067;}
	.st19{fill:none;stroke:#D2374E;stroke-width:3.25;stroke-linecap:round;stroke-linejoin:round;stroke-dasharray:4.0006,7.001;}
	.st20{fill:none;stroke:#D2374E;stroke-width:3.25;stroke-linecap:round;stroke-linejoin:round;stroke-dasharray:3.987,6.9773;}
	.st21{fill:none;stroke:#D2374E;stroke-width:3.25;stroke-linecap:round;stroke-linejoin:round;stroke-dasharray:4.009,7.0157;}
	.st22{fill:none;stroke:#D2374E;stroke-width:3.25;stroke-linecap:round;stroke-linejoin:round;stroke-dasharray:4.0063,7.011;}
	.st23{fill:none;stroke:#D2374E;stroke-width:3.25;stroke-linecap:round;stroke-linejoin:round;stroke-dasharray:3.9937,6.9891;}
	.st24{fill:none;stroke:#D2374E;stroke-width:3.25;stroke-linecap:round;stroke-linejoin:round;stroke-dasharray:4.0095,7.0167;}
	.st25{fill:none;stroke:#D2374E;stroke-width:3.25;stroke-linecap:round;stroke-linejoin:round;stroke-dasharray:4.0141,7.0247;}
	.st26{fill:none;stroke:#D2374E;stroke-width:3.25;stroke-linecap:round;stroke-linejoin:round;stroke-dasharray:4.0215,7.0376;}
	.st27{fill:none;stroke:#D2374E;stroke-width:3.25;stroke-linecap:round;stroke-linejoin:round;stroke-dasharray:4.0058,7.0102;}
	.st28{fill:none;stroke:#D2374E;stroke-width:3;stroke-linecap:round;stroke-linejoin:round;}
	.st29{fill:none;stroke:#D2374E;stroke-width:3;stroke-linecap:round;stroke-linejoin:round;stroke-dasharray:4.0092,7.0162;}
	.st30{fill:none;stroke:#D2374E;stroke-width:3.25;stroke-linecap:round;stroke-linejoin:round;stroke-dasharray:4.0228,7.0398;}
	.st31{fill:none;stroke:#D2374E;stroke-width:3;stroke-linecap:round;stroke-linejoin:round;stroke-dasharray:4.0396,7.0693;}
	.st32{fill:none;stroke:#D2374E;stroke-width:3.25;stroke-linecap:round;stroke-linejoin:round;stroke-dasharray:3.9105,6.8434;}
	.st33{fill:none;stroke:#D2374E;stroke-width:3;stroke-linecap:round;stroke-linejoin:round;stroke-dasharray:3.9148,6.8508;}
	.st34{fill:none;stroke:#D2374E;stroke-width:3;stroke-linecap:round;stroke-linejoin:round;stroke-dasharray:3.968,6.944;}
	.st35{fill:none;stroke:#D2374E;stroke-width:3.25;stroke-linecap:round;stroke-linejoin:round;stroke-dasharray:4.0906,7.1586;}
	.st36{fill:none;stroke:#D2374E;stroke-width:3;stroke-linecap:round;stroke-linejoin:round;stroke-dasharray:4.1061,7.1856;}
	.st37{fill:none;stroke:#D2374E;stroke-width:3;stroke-linecap:round;stroke-linejoin:round;stroke-dasharray:3.9579,6.9263;}
	.st38{fill:none;stroke:#D2374E;stroke-width:3;stroke-linecap:round;stroke-linejoin:round;stroke-dasharray:4.0482,7.0844;}
	.st39{fill:none;stroke:#D2374E;stroke-width:3.25;stroke-linecap:round;stroke-linejoin:round;stroke-dasharray:4.0572,7.1;}
	.st40{fill:none;stroke:#D2374E;stroke-width:3;stroke-linecap:round;stroke-linejoin:round;stroke-dasharray:2.6197,5.2393;}
	.st41{fill:none;stroke:#D2374E;stroke-width:3;stroke-linecap:round;stroke-linejoin:round;stroke-dasharray:3.0325,6.0649;}
	.st42{fill:none;stroke:#D2374E;stroke-width:3;stroke-linecap:round;stroke-linejoin:round;stroke-dasharray:3.0367,6.0734;}
	.st43{fill:none;stroke:#D2374E;stroke-width:3;stroke-linecap:round;stroke-linejoin:round;stroke-dasharray:3.0021,6.0042;}
	.st44{fill:none;stroke:#D2374E;stroke-width:3;stroke-linecap:round;stroke-linejoin:round;stroke-dasharray:3.0257,6.0515;}
	.st45{fill:none;stroke:#D2374E;stroke-width:3;stroke-linecap:round;stroke-linejoin:round;stroke-dasharray:3.1274,6.2547;}
	.st46{fill:none;stroke:#D2374E;stroke-width:3;stroke-linecap:round;stroke-linejoin:round;stroke-dasharray:3.5429,7.0857;}
	.st47{fill:none;stroke:#D2374E;stroke-width:3;stroke-linecap:round;stroke-linejoin:round;stroke-dasharray:2.8014,5.6028;}
	.st48{fill:none;stroke:#D2374E;stroke-width:3;stroke-linecap:round;stroke-linejoin:round;stroke-dasharray:3.1275,6.255;}
	.st49{fill:none;stroke:#D2374E;stroke-width:3;stroke-linecap:round;stroke-linejoin:round;stroke-dasharray:2.6361,5.2722;}
	.st50{fill:none;stroke:#D2374E;stroke-width:3;stroke-linecap:round;stroke-linejoin:round;stroke-dasharray:3.0481,6.0963;}
	.st51{fill:none;stroke:#D2374E;stroke-width:3;stroke-linecap:round;stroke-linejoin:round;stroke-dasharray:3.0526,6.1051;}
	.st52{fill:none;stroke:#D2374E;stroke-width:3;stroke-linecap:round;stroke-linejoin:round;stroke-dasharray:3.0176,6.0352;}
	.st53{fill:none;stroke:#D2374E;stroke-width:3;stroke-linecap:round;stroke-linejoin:round;stroke-dasharray:2.9835,5.9671;}
	.st54{fill:none;stroke:#D2374E;stroke-width:3;stroke-linecap:round;stroke-linejoin:round;stroke-dasharray:3.1452,6.2905;}
	.st55{fill:none;stroke:#D2374E;stroke-width:3;stroke-linecap:round;stroke-linejoin:round;stroke-dasharray:3.564,7.128;}
	.st56{fill:none;stroke:#D2374E;stroke-width:3;stroke-linecap:round;stroke-linejoin:round;stroke-dasharray:2.8164,5.6327;}
	.st57{fill:none;stroke:#D2374E;stroke-width:3;stroke-linecap:round;stroke-linejoin:round;stroke-dasharray:3.1454,6.2907;}
	.st58{fill:none;stroke:#D2374E;stroke-width:3;stroke-linecap:round;stroke-linejoin:round;stroke-dasharray:3.0132,6.0264;}
	.st59{fill:none;stroke:#D2374E;stroke-width:3;stroke-linecap:round;stroke-linejoin:round;stroke-dasharray:3.6187,7.2374;}
	.st60{fill:none;stroke:#D2374E;stroke-width:3;stroke-linecap:round;stroke-linejoin:round;stroke-dasharray:2.9152,5.8303;}
	.st61{fill:none;stroke:#D2374E;stroke-width:3;stroke-linecap:round;stroke-linejoin:round;stroke-dasharray:3.0102,6.0205;}
	.st62{fill:none;stroke:#D2374E;stroke-width:3;stroke-linecap:round;stroke-linejoin:round;stroke-dasharray:3.007,6.0141;}
	.st63{fill:none;stroke:#D2374E;stroke-width:3;stroke-linecap:round;stroke-linejoin:round;stroke-dasharray:3.0168,6.0335;}
	.st64{fill:none;stroke:#D2374E;stroke-width:3;stroke-linecap:round;stroke-linejoin:round;stroke-dasharray:2.5726,5.1451;}
	.st65{fill:none;stroke:#D2374E;stroke-width:3;stroke-linecap:round;stroke-linejoin:round;stroke-dasharray:2.9686,5.9372;}
	.st66{fill:none;stroke:#D2374E;stroke-width:3;stroke-linecap:round;stroke-linejoin:round;stroke-dasharray:3.0032,6.0064;}
	.st67{fill:none;stroke:#D2374E;stroke-width:3;stroke-linecap:round;stroke-linejoin:round;stroke-dasharray:3.0196,6.0393;}
	.st68{fill:none;stroke:#D2374E;stroke-width:3;stroke-linecap:round;stroke-linejoin:round;stroke-dasharray:3.0047,6.0093;}
	.st69{fill:none;stroke:#D2374E;stroke-width:3;stroke-linecap:round;stroke-linejoin:round;stroke-dasharray:2.8469,5.6939;}
	.st70{fill:none;stroke:#D2374E;stroke-width:3;stroke-linecap:round;stroke-linejoin:round;stroke-dasharray:3.1916,6.3831;}
	.st71{fill:none;stroke:#D2374E;stroke-width:3;stroke-linecap:round;stroke-linejoin:round;stroke-dasharray:3.0022,6.0043;}
	.st72{fill:none;stroke:#D2374E;stroke-width:3;stroke-linecap:round;stroke-linejoin:round;stroke-dasharray:3.0264,6.0529;}
	.st73{fill:none;stroke:#D2374E;stroke-width:3;stroke-linecap:round;stroke-linejoin:round;stroke-dasharray:2.5218,5.0437;}
	.st74{fill:none;stroke:#D2374E;stroke-width:3;stroke-linecap:round;stroke-linejoin:round;stroke-dasharray:2.8261,5.6523;}
	.st75{fill:none;stroke:#D2374E;stroke-width:3;stroke-linecap:round;stroke-linejoin:round;stroke-dasharray:3.1043,6.2087;}
	.st76{fill:none;stroke:#D2374E;stroke-width:3;stroke-linecap:round;stroke-linejoin:round;stroke-dasharray:1.7504,3.5008;}
	.st77{fill:none;stroke:#D2374E;stroke-width:3;stroke-linecap:round;stroke-linejoin:round;stroke-dasharray:2.9666,5.9332;}
	.st78{fill:none;stroke:#D2374E;stroke-width:3;stroke-linecap:round;stroke-linejoin:round;stroke-dasharray:2.0307,4.0615;}
	.st79{fill:none;stroke:#D2374E;stroke-width:3;stroke-linecap:round;stroke-linejoin:round;stroke-dasharray:3.0411,6.0823;}
	.st80{fill:none;stroke:#D2374E;stroke-width:3;stroke-linecap:round;stroke-linejoin:round;stroke-dasharray:2.8907,5.7813;}
	.st81{fill:none;stroke:#D2374E;stroke-width:3;stroke-linecap:round;stroke-linejoin:round;stroke-dasharray:2.9428,5.8855;}
	.st82{fill:none;stroke:#D2374E;stroke-width:3;stroke-linecap:round;stroke-linejoin:round;stroke-dasharray:2.9775,5.955;}
	.st83{fill:none;stroke:#D2374E;stroke-width:3;stroke-linecap:round;stroke-linejoin:round;stroke-dasharray:3.3641,6.7281;}
	.st84{fill:none;stroke:#D2374E;stroke-width:3;stroke-linecap:round;stroke-linejoin:round;stroke-dasharray:3.141,6.282;}
	.st85{fill:none;stroke:#D2374E;stroke-width:3;stroke-linecap:round;stroke-linejoin:round;stroke-dasharray:2.975,5.95;}
	.st86{fill:none;stroke:#D2374E;stroke-width:3;stroke-linecap:round;stroke-linejoin:round;stroke-dasharray:2.9929,5.9859;}
	.st87{fill:none;stroke:#D2374E;stroke-width:3;stroke-linecap:round;stroke-linejoin:round;stroke-dasharray:3.5905,7.181;}
	.st88{fill:none;stroke:#D2374E;stroke-width:3;stroke-linecap:round;stroke-linejoin:round;stroke-dasharray:2.8948,5.7896;}
	.st89{fill:none;stroke:#D2374E;stroke-width:3;stroke-linecap:round;stroke-linejoin:round;stroke-dasharray:2.99,5.98;}
	.st90{fill:none;stroke:#D2374E;stroke-width:3;stroke-linecap:round;stroke-linejoin:round;stroke-dasharray:3.0201,6.0401;}
	.st91{fill:none;stroke:#D2374E;stroke-width:3;stroke-linecap:round;stroke-linejoin:round;stroke-dasharray:2.6503,5.3006;}
	.st92{fill:none;stroke:#D2374E;stroke-width:3;stroke-linecap:round;stroke-linejoin:round;stroke-dasharray:2.9784,5.9568;}
	.st93{fill:none;stroke:#D2374E;stroke-width:3;stroke-linecap:round;stroke-linejoin:round;stroke-dasharray:3.2497,6.4995;}
	.st94{fill:none;stroke:#D2374E;stroke-width:3;stroke-linecap:round;stroke-linejoin:round;stroke-dasharray:2.9664,5.9328;}
	.st95{fill:none;stroke:#D2374E;stroke-width:3;stroke-linecap:round;stroke-linejoin:round;stroke-dasharray:2.4648,4.9296;}
	.st96{fill:none;stroke:#D2374E;stroke-width:3;stroke-linecap:round;stroke-linejoin:round;stroke-dasharray:2.7587,5.5175;}
	.st97{fill:none;stroke:#D2374E;stroke-width:3;stroke-linecap:round;stroke-linejoin:round;stroke-dasharray:3.0398,6.0795;}
	.st98{fill:none;stroke:#D2374E;stroke-width:3;stroke-linecap:round;stroke-linejoin:round;stroke-dasharray:2.4648,4.9297;}
	.st99{fill:none;stroke:#D2374E;stroke-width:3;stroke-linecap:round;stroke-linejoin:round;stroke-dasharray:3.0107,6.0214;}
	.st100{fill:none;stroke:#D2374E;stroke-width:3;stroke-linecap:round;stroke-linejoin:round;stroke-dasharray:1.9704,3.9409;}
	.st101{fill:none;stroke:#D2374E;stroke-width:3;stroke-linecap:round;stroke-linejoin:round;stroke-dasharray:3.1249,6.2498;}
	.st102{fill:none;stroke:#D2374E;stroke-width:3;stroke-linecap:round;stroke-linejoin:round;stroke-dasharray:2.9489,5.8978;}
	.st103{fill:none;stroke:#D2374E;stroke-width:3;stroke-linecap:round;stroke-linejoin:round;stroke-dasharray:2.9939,5.9878;}
	.st104{fill:none;stroke:#D2374E;stroke-width:3;stroke-linecap:round;stroke-linejoin:round;stroke-dasharray:3.0656,6.1313;}
	.st105{fill:none;stroke:#D2374E;stroke-width:3;stroke-linecap:round;stroke-linejoin:round;stroke-dasharray:2.974,5.948;}
	.st106{fill:none;stroke:#D2374E;stroke-width:3;stroke-linecap:round;stroke-linejoin:round;stroke-dasharray:2.9485,5.8969;}
	.st107{fill:none;stroke:#D2374E;stroke-width:3;stroke-linecap:round;stroke-linejoin:round;stroke-dasharray:2.7972,5.5943;}
	.st108{fill:none;stroke:#D2374E;stroke-width:3;stroke-linecap:round;stroke-linejoin:round;stroke-dasharray:2.9715,5.9431;}
	.st109{fill:none;stroke:#D2374E;stroke-width:3;stroke-linecap:round;stroke-linejoin:round;stroke-dasharray:3.0298,6.0595;}
	.st110{fill:none;stroke:#D2374E;stroke-width:3;stroke-linecap:round;stroke-linejoin:round;stroke-dasharray:3.5005,7.0009;}
	.st111{fill:none;stroke:#D2374E;stroke-width:3;stroke-linecap:round;stroke-linejoin:round;stroke-dasharray:3.0749,6.1497;}
	.st112{fill:none;stroke:#D2374E;stroke-width:3;stroke-linecap:round;stroke-linejoin:round;stroke-dasharray:3.0297,6.0595;}
	.st113{fill:none;stroke:#D2374E;stroke-width:3;stroke-linecap:round;stroke-linejoin:round;stroke-dasharray:2.9751,5.9503;}
	.st114{fill:none;stroke:#D2374E;stroke-width:3;stroke-linecap:round;stroke-linejoin:round;stroke-dasharray:2.9916,5.9833;}
	.st115{fill:none;stroke:#D2374E;stroke-width:3;stroke-linecap:round;stroke-linejoin:round;stroke-dasharray:3.0277,6.0554;}
	.st116{fill:none;stroke:#D2374E;stroke-width:3;stroke-linecap:round;stroke-linejoin:round;stroke-dasharray:2.9896,5.9791;}
	.st117{fill:none;stroke:#D2374E;stroke-width:3;stroke-linecap:round;stroke-linejoin:round;stroke-dasharray:3.3114,6.6229;}
	.st118{fill:none;stroke:#D2374E;stroke-width:3;stroke-linecap:round;stroke-linejoin:round;stroke-dasharray:3.0973,6.1946;}
	.st119{fill:none;stroke:#D2374E;stroke-width:3;stroke-linecap:round;stroke-linejoin:round;stroke-dasharray:2.9871,5.9741;}
	.st120{fill:none;stroke:#D2374E;stroke-width:3;stroke-linecap:round;stroke-linejoin:round;stroke-dasharray:2.9984,5.9968;}
	.st121{fill:none;stroke:#D2374E;stroke-width:3;stroke-linecap:round;stroke-linejoin:round;stroke-dasharray:3.0685,6.1369;}
	.st122{fill:none;stroke:#D2374E;stroke-width:3;stroke-linecap:round;stroke-linejoin:round;stroke-dasharray:2.9295,5.8591;}
	.st123{fill:none;stroke:#D2374E;stroke-width:3;stroke-linecap:round;stroke-linejoin:round;stroke-dasharray:3.0338,6.0675;}
	.st124{fill:none;stroke:#D2374E;stroke-width:3;stroke-linecap:round;stroke-linejoin:round;stroke-dasharray:3.0245,6.0491;}
	.st125{fill:none;stroke:#D2374E;stroke-width:3;stroke-linecap:round;stroke-linejoin:round;stroke-dasharray:3.0287,6.0573;}
	.st126{fill:none;stroke:#D2374E;stroke-width:3;stroke-linecap:round;stroke-linejoin:round;stroke-dasharray:3.2853,6.5706;}
	.st127{fill:none;stroke:#D2374E;stroke-width:3;stroke-linecap:round;stroke-linejoin:round;stroke-dasharray:3.0052,6.0104;}
	.st128{fill:none;stroke:#D2374E;stroke-width:3;stroke-linecap:round;stroke-linejoin:round;stroke-dasharray:2.8035,5.6071;}
	.st129{fill:none;stroke:#D2374E;stroke-width:2.75;stroke-linecap:round;stroke-linejoin:round;stroke-miterlimit:10;}
	.st130{fill:none;stroke:#D2374E;stroke-width:2.5;stroke-linecap:round;stroke-linejoin:round;stroke-miterlimit:10;}
	.st131{fill:none;stroke:#D2374E;stroke-width:3.5;stroke-linecap:round;stroke-linejoin:round;stroke-miterlimit:10;}
	.st132{fill:none;stroke:#D2374E;stroke-width:3.25;stroke-linecap:round;stroke-linejoin:round;stroke-miterlimit:10;}
</style>
<metadata>
	<sfw  xmlns="&ns_sfw;">
		<slices></slices>
		<sliceSourceBounds  bottomLeftOrigin="true" height="11407.627" width="4426" x="-2000" y="-2314"></sliceSourceBounds>
	</sfw>
</metadata>
<g id="FILL-BACKGROUND">
	<rect x="0" y="0" class="st0" width="1000" height="675"/>
</g>
<g id="N-DIMENSIONS">
	<g id="MTEXT_00000119829826559287034330000005886911447229405340_">
		<g>
			<g>
				<path class="st1" d="M826.539,144.619v-17.454h6.886c1.324,0,2.452,0.251,3.384,0.755c0.932,0.502,1.643,1.198,2.135,2.088
					c0.491,0.889,0.737,1.913,0.737,3.072c0,1.158-0.25,2.182-0.75,3.068c-0.5,0.886-1.223,1.576-2.169,2.07
					c-0.946,0.494-2.09,0.742-3.431,0.742h-4.389v-2.958h3.792c0.71,0,1.297-0.124,1.76-0.37c0.463-0.248,0.81-0.592,1.04-1.031
					c0.23-0.44,0.345-0.947,0.345-1.521c0-0.58-0.115-1.087-0.345-1.521s-0.578-0.772-1.044-1.014
					c-0.466-0.242-1.057-0.363-1.773-0.363h-2.488v14.438H826.539z"/>
				<path class="st1" d="M845.646,127.165v17.454h-3.631v-17.454H845.646z"/>
				<path class="st1" d="M852.276,144.867c-0.835,0-1.58-0.146-2.233-0.439s-1.169-0.727-1.547-1.304s-0.566-1.297-0.566-2.161
					c0-0.727,0.133-1.338,0.4-1.832s0.631-0.892,1.091-1.193c0.46-0.301,0.984-0.528,1.572-0.682
					c0.588-0.153,1.206-0.262,1.854-0.324c0.761-0.079,1.375-0.154,1.841-0.226s0.804-0.177,1.014-0.319
					c0.21-0.143,0.315-0.352,0.315-0.631v-0.051c0-0.54-0.169-0.957-0.507-1.253c-0.338-0.296-0.817-0.443-1.436-0.443
					c-0.653,0-1.173,0.144-1.56,0.431s-0.642,0.646-0.767,1.078l-3.358-0.273c0.17-0.795,0.506-1.484,1.006-2.066
					s1.146-1.031,1.939-1.347c0.792-0.315,1.711-0.473,2.757-0.473c0.728,0,1.425,0.085,2.092,0.255
					c0.667,0.171,1.262,0.436,1.781,0.793c0.52,0.358,0.931,0.817,1.231,1.377c0.301,0.56,0.452,1.229,0.452,2.007v8.829h-3.443
					v-1.814h-0.103c-0.21,0.408-0.491,0.768-0.844,1.078c-0.352,0.31-0.775,0.551-1.27,0.725
					C853.495,144.78,852.924,144.867,852.276,144.867z M853.316,142.361c0.534,0,1.005-0.107,1.415-0.32s0.73-0.501,0.963-0.865
					c0.233-0.363,0.349-0.775,0.349-1.235v-1.39c-0.114,0.074-0.269,0.141-0.464,0.201c-0.196,0.06-0.417,0.113-0.661,0.162
					c-0.244,0.048-0.489,0.09-0.733,0.127s-0.466,0.07-0.665,0.099c-0.426,0.062-0.798,0.161-1.117,0.298s-0.565,0.32-0.741,0.55
					c-0.176,0.23-0.264,0.516-0.264,0.856c0,0.494,0.18,0.871,0.541,1.129C852.301,142.232,852.759,142.361,853.316,142.361z"/>
				<path class="st1" d="M866.1,137.051v7.568h-3.631v-13.09h3.46v2.309h0.153c0.29-0.761,0.775-1.364,1.458-1.811
					c0.682-0.445,1.508-0.669,2.48-0.669c0.909,0,1.702,0.198,2.378,0.597c0.676,0.397,1.202,0.965,1.577,1.7
					s0.562,1.612,0.562,2.629v8.335h-3.631v-7.688c0.006-0.801-0.199-1.428-0.613-1.879c-0.415-0.451-0.986-0.678-1.713-0.678
					c-0.489,0-0.919,0.105-1.291,0.315s-0.662,0.516-0.87,0.917C866.212,136.008,866.105,136.488,866.1,137.051z"/>
			</g>
		</g>
	</g>
	<g>
		<g>
			<g id="MTEXT_00000073704089015021184240000001443286543074908826_">
				<g>
					<g>
						<g>
							<path class="st1" d="M582.764,64.03c-0.08-0.087-0.12-0.196-0.12-0.33V52.42L579.284,55c-0.094,0.08-0.194,0.12-0.301,0.12
								c-0.12,0-0.233-0.066-0.34-0.2l-0.479-0.619c-0.067-0.094-0.101-0.188-0.101-0.281c0-0.146,0.066-0.266,0.2-0.359l4.34-3.359
								c0.146-0.094,0.32-0.141,0.521-0.141h0.939c0.134,0,0.243,0.043,0.33,0.13s0.13,0.196,0.13,0.33V63.7
								c0,0.134-0.043,0.243-0.13,0.33s-0.196,0.13-0.33,0.13h-0.979C582.95,64.16,582.844,64.117,582.764,64.03z"/>
							<path class="st1" d="M591.264,64.03c-0.08-0.087-0.12-0.196-0.12-0.33V52.42l-3.36,2.58c-0.094,0.08-0.193,0.12-0.3,0.12
								c-0.12,0-0.233-0.066-0.34-0.2l-0.48-0.619c-0.066-0.094-0.1-0.188-0.1-0.281c0-0.146,0.066-0.266,0.2-0.359l4.34-3.359
								c0.146-0.094,0.319-0.141,0.52-0.141h0.94c0.133,0,0.243,0.043,0.33,0.13c0.086,0.087,0.13,0.196,0.13,0.33V63.7
								c0,0.134-0.044,0.243-0.13,0.33c-0.087,0.087-0.197,0.13-0.33,0.13h-0.98C591.45,64.16,591.343,64.117,591.264,64.03z"/>
							<path class="st1" d="M596.054,64.03c-0.087-0.087-0.131-0.196-0.131-0.33v-1.38c0-0.133,0.044-0.246,0.131-0.34
								c0.086-0.094,0.196-0.141,0.329-0.141h1.381c0.133,0,0.243,0.047,0.329,0.141c0.087,0.094,0.131,0.207,0.131,0.34v1.38
								c0,0.134-0.044,0.243-0.131,0.33c-0.086,0.087-0.196,0.13-0.329,0.13h-1.381C596.25,64.16,596.14,64.117,596.054,64.03z"/>
							<path class="st1" d="M602.993,63.85c-0.794-0.34-1.41-0.83-1.851-1.469c-0.439-0.641-0.659-1.387-0.659-2.24
								c0-0.787,0.196-1.477,0.59-2.07c0.393-0.594,0.923-1.051,1.59-1.37c-0.533-0.307-0.947-0.71-1.24-1.21
								s-0.439-1.09-0.439-1.77c0-1.16,0.433-2.077,1.3-2.75c0.866-0.674,2.007-1.011,3.42-1.011s2.55,0.333,3.41,1
								c0.859,0.667,1.29,1.587,1.29,2.761c0,0.666-0.147,1.25-0.44,1.75s-0.7,0.91-1.22,1.229c0.666,0.319,1.196,0.776,1.59,1.37
								s0.59,1.29,0.59,2.09c0,0.854-0.22,1.597-0.66,2.23c-0.439,0.633-1.057,1.119-1.85,1.459c-0.794,0.34-1.697,0.511-2.71,0.511
								C604.689,64.36,603.786,64.189,602.993,63.85z M608.073,62.08c0.633-0.48,0.95-1.12,0.95-1.92s-0.317-1.439-0.95-1.92
								c-0.634-0.48-1.424-0.721-2.37-0.721c-0.96,0-1.757,0.24-2.39,0.721c-0.634,0.48-0.95,1.12-0.95,1.92s0.316,1.439,0.95,1.92
								c0.633,0.48,1.43,0.721,2.39,0.721C606.649,62.801,607.439,62.561,608.073,62.08z M607.763,55.36
								c0.561-0.4,0.841-0.933,0.841-1.601c0-0.68-0.277-1.223-0.83-1.629c-0.554-0.407-1.244-0.611-2.07-0.611
								c-0.84,0-1.533,0.204-2.08,0.611c-0.547,0.406-0.82,0.949-0.82,1.629s0.273,1.224,0.82,1.631
								c0.547,0.406,1.24,0.609,2.08,0.609C606.517,55.974,607.203,55.76,607.763,55.36z"/>
							<path class="st1" d="M613.253,53.641c-0.061-0.08-0.077-0.181-0.05-0.301l0.439-2.8c0.054-0.386,0.24-0.58,0.561-0.58h1.279
								c0.094,0,0.17,0.034,0.23,0.101c0.06,0.066,0.09,0.146,0.09,0.24c0,0.133-0.02,0.239-0.06,0.319l-1.04,2.7
								c-0.067,0.146-0.141,0.257-0.221,0.33s-0.199,0.109-0.359,0.109h-0.62C613.396,53.76,613.312,53.721,613.253,53.641z
								 M616.393,53.641c-0.06-0.08-0.077-0.181-0.05-0.301l0.44-2.8c0.053-0.386,0.239-0.58,0.56-0.58h1.28
								c0.093,0,0.17,0.034,0.229,0.101c0.061,0.066,0.09,0.146,0.09,0.24c0,0.133-0.02,0.239-0.06,0.319l-1.04,2.7
								c-0.067,0.146-0.14,0.257-0.22,0.33s-0.2,0.109-0.36,0.109h-0.62C616.536,53.76,616.453,53.721,616.393,53.641z"/>
							<path class="st1" d="M626.262,68.189c-0.08-0.086-0.12-0.196-0.12-0.329V46.7c0-0.134,0.04-0.243,0.12-0.33
								s0.187-0.13,0.32-0.13h0.74c0.133,0,0.243,0.043,0.329,0.13c0.087,0.087,0.131,0.196,0.131,0.33v21.16
								c0,0.133-0.044,0.243-0.131,0.329c-0.086,0.088-0.196,0.131-0.329,0.131h-0.74C626.448,68.32,626.342,68.277,626.262,68.189z
								"/>
							<path class="st1" d="M637.401,63.85c-0.76-0.34-1.337-0.783-1.729-1.33c-0.394-0.546-0.604-1.112-0.631-1.699
								c0-0.12,0.04-0.217,0.12-0.29s0.181-0.11,0.3-0.11h0.9c0.146,0,0.267,0.03,0.36,0.09c0.093,0.061,0.166,0.178,0.22,0.351
								c0.173,0.68,0.55,1.159,1.13,1.44c0.58,0.279,1.264,0.42,2.05,0.42c0.96,0,1.724-0.23,2.29-0.69s0.851-1.116,0.851-1.97
								c0-1.627-0.994-2.44-2.98-2.44h-1.88c-0.134,0-0.243-0.043-0.33-0.13c-0.087-0.086-0.13-0.197-0.13-0.33v-0.52
								c0-0.201,0.073-0.373,0.22-0.521l3.9-4.319h-5.92c-0.134,0-0.243-0.041-0.33-0.121s-0.13-0.186-0.13-0.319v-0.72
								c0-0.146,0.043-0.264,0.13-0.351s0.196-0.13,0.33-0.13h7.92c0.146,0,0.263,0.043,0.35,0.13s0.13,0.204,0.13,0.351v0.66
								c0,0.146-0.066,0.299-0.199,0.459l-3.9,4.381h0.32c1.359,0.039,2.437,0.393,3.229,1.06s1.19,1.64,1.19,2.92
								c0,0.88-0.217,1.637-0.65,2.271c-0.434,0.633-1.037,1.119-1.81,1.459c-0.773,0.34-1.647,0.511-2.62,0.511
								C639.062,64.36,638.161,64.189,637.401,63.85z"/>
							<path class="st1" d="M648.69,62.85c-0.793-1.006-1.217-2.322-1.27-3.949L647.4,57.18l0.021-1.779
								c0.04-1.613,0.463-2.924,1.27-3.93c0.807-1.008,2.063-1.511,3.771-1.511c1.72,0,2.983,0.503,3.79,1.511
								c0.807,1.006,1.229,2.316,1.27,3.93c0.014,0.373,0.021,0.967,0.021,1.779c0,0.787-0.007,1.36-0.021,1.721
								c-0.053,1.627-0.477,2.943-1.27,3.949c-0.794,1.008-2.057,1.511-3.79,1.511C650.741,64.36,649.484,63.857,648.69,62.85z
								 M654.781,61.68c0.52-0.68,0.793-1.64,0.819-2.879c0.014-0.387,0.021-0.94,0.021-1.66c0-0.733-0.007-1.28-0.021-1.641
								c-0.026-1.227-0.303-2.184-0.83-2.869c-0.526-0.688-1.297-1.031-2.31-1.031c-1.014,0-1.78,0.344-2.3,1.031
								c-0.521,0.686-0.794,1.643-0.82,2.869l-0.02,1.641l0.02,1.66c0.026,1.239,0.3,2.199,0.82,2.879
								c0.52,0.681,1.286,1.021,2.3,1.021C653.487,62.7,654.261,62.36,654.781,61.68z"/>
							<path class="st1" d="M666.04,63.15c-0.8-0.807-1.22-1.938-1.26-3.391l-0.02-0.8l0.02-0.8c0.04-1.453,0.46-2.583,1.26-3.391
								c0.801-0.807,1.913-1.209,3.341-1.209c0.96,0,1.77,0.17,2.43,0.51s1.153,0.764,1.479,1.27
								c0.327,0.508,0.504,1.014,0.53,1.521c0.014,0.12-0.03,0.227-0.13,0.319c-0.1,0.094-0.21,0.141-0.33,0.141h-0.88
								c-0.134,0-0.233-0.03-0.3-0.09c-0.067-0.061-0.134-0.17-0.2-0.33c-0.24-0.653-0.57-1.117-0.99-1.391s-0.95-0.41-1.59-0.41
								c-0.84,0-1.507,0.261-2,0.781c-0.493,0.52-0.76,1.312-0.8,2.379l-0.021,0.7l0.021,0.7c0.04,1.066,0.307,1.859,0.8,2.38
								s1.16,0.78,2,0.78c0.653,0,1.187-0.137,1.6-0.41c0.414-0.273,0.74-0.736,0.98-1.391c0.066-0.159,0.133-0.27,0.2-0.33
								c0.066-0.059,0.166-0.09,0.3-0.09h0.88c0.12,0,0.23,0.047,0.33,0.141s0.144,0.199,0.13,0.32
								c-0.026,0.493-0.203,0.993-0.53,1.5c-0.326,0.506-0.819,0.934-1.479,1.279c-0.66,0.347-1.47,0.521-2.43,0.521
								C667.953,64.36,666.841,63.957,666.04,63.15z"/>
							<path class="st1" d="M676.351,64.03c-0.087-0.087-0.13-0.196-0.13-0.33v-9.479c0-0.134,0.043-0.244,0.13-0.33
								c0.087-0.087,0.196-0.131,0.33-0.131h0.84c0.133,0,0.24,0.044,0.32,0.131c0.08,0.086,0.12,0.196,0.12,0.33v0.68
								c0.72-0.894,1.692-1.34,2.92-1.34c1.466,0,2.506,0.613,3.119,1.84c0.32-0.561,0.777-1.007,1.37-1.34
								c0.594-0.334,1.257-0.5,1.99-0.5c1.093,0,1.986,0.373,2.68,1.119c0.693,0.748,1.04,1.827,1.04,3.24v5.78
								c0,0.134-0.043,0.243-0.13,0.33s-0.196,0.13-0.33,0.13h-0.859c-0.134,0-0.244-0.043-0.33-0.13
								c-0.087-0.087-0.13-0.196-0.13-0.33V58.1c0-1.066-0.221-1.83-0.66-2.289c-0.44-0.461-1.021-0.69-1.74-0.69
								c-0.64,0-1.189,0.237-1.65,0.71c-0.46,0.474-0.689,1.23-0.689,2.27V63.7c0,0.134-0.044,0.243-0.13,0.33
								c-0.087,0.087-0.197,0.13-0.33,0.13h-0.88c-0.134,0-0.244-0.043-0.33-0.13c-0.087-0.087-0.13-0.196-0.13-0.33V58.1
								c0-1.053-0.23-1.812-0.69-2.279s-1.03-0.7-1.71-0.7c-0.64,0-1.189,0.233-1.649,0.7c-0.461,0.467-0.69,1.22-0.69,2.26v5.62
								c0,0.134-0.044,0.243-0.13,0.33c-0.087,0.087-0.197,0.13-0.33,0.13h-0.88C676.547,64.16,676.438,64.117,676.351,64.03z"/>
						</g>
					</g>
				</g>
			</g>
			<g>
				<g>
					<line class="st2" x1="691.197" y1="77.114" x2="689.697" y2="77.114"/>
					<line class="st3" x1="683.928" y1="77.114" x2="677.582" y2="77.114"/>
					<line class="st2" x1="674.697" y1="77.114" x2="673.197" y2="77.114"/>
				</g>
			</g>
		</g>
		<g>
			<g id="POLYLINE_00000180325436875098180140000008003805905523662242_">
				<polyline class="st4" points="909.775,535.604 917.123,542.951 909.775,550.299 				"/>
			</g>
			<g id="POLYLINE_00000174595431298946755330000008219491350340663692_">
				<polyline class="st4" points="789.816,535.604 782.468,542.951 789.816,550.299 				"/>
			</g>
			<g id="MTEXT_00000159443113500788723010000001151007892243395992_">
				<g>
					<g>
						<g>
							<path class="st1" d="M829.919,549.69c-0.087-0.087-0.13-0.196-0.13-0.33v-0.601c0-0.307,0.167-0.6,0.5-0.879l4.36-4.34
								c0.987-0.841,1.667-1.527,2.04-2.061c0.373-0.533,0.56-1.1,0.56-1.7c0-0.786-0.22-1.403-0.66-1.851
								c-0.44-0.445-1.08-0.67-1.92-0.67c-0.8,0-1.433,0.234-1.9,0.701s-0.753,1.093-0.86,1.879c-0.027,0.147-0.094,0.26-0.2,0.34
								c-0.107,0.08-0.213,0.121-0.32,0.121h-0.96c-0.12,0-0.22-0.041-0.3-0.121c-0.08-0.08-0.12-0.172-0.12-0.279
								c0.026-0.707,0.216-1.391,0.57-2.051c0.353-0.659,0.876-1.199,1.57-1.619s1.533-0.631,2.52-0.631
								c1.493,0,2.617,0.391,3.37,1.171c0.753,0.78,1.13,1.771,1.13,2.97c0,0.84-0.203,1.598-0.61,2.27
								c-0.407,0.674-1.043,1.384-1.91,2.131l-3.94,4h6.3c0.146,0,0.26,0.039,0.34,0.119s0.12,0.193,0.12,0.34v0.761
								c0,0.134-0.043,0.243-0.13,0.33c-0.086,0.087-0.197,0.13-0.33,0.13h-8.76C830.116,549.82,830.006,549.777,829.919,549.69z"/>
							<path class="st1" d="M841.979,549.69c-0.087-0.087-0.13-0.196-0.13-0.33v-1.38c0-0.133,0.043-0.246,0.13-0.34
								c0.086-0.094,0.196-0.141,0.33-0.141h1.38c0.133,0,0.243,0.047,0.33,0.141c0.087,0.094,0.13,0.207,0.13,0.34v1.38
								c0,0.134-0.043,0.243-0.13,0.33c-0.086,0.087-0.197,0.13-0.33,0.13h-1.38C842.176,549.82,842.066,549.777,841.979,549.69z"/>
							<path class="st1" d="M848.179,549.69c-0.073-0.087-0.11-0.19-0.11-0.31c0-0.094,0.026-0.181,0.08-0.261l3.08-4.28
								c-0.32,0.08-0.693,0.121-1.12,0.121c-0.96-0.014-1.8-0.237-2.52-0.67c-0.72-0.434-1.27-1-1.65-1.701
								c-0.38-0.699-0.57-1.449-0.57-2.25c0-0.799,0.19-1.56,0.57-2.279c0.38-0.721,0.946-1.307,1.7-1.76s1.663-0.681,2.73-0.681
								s1.98,0.22,2.74,0.66c0.76,0.44,1.333,1.017,1.72,1.729c0.386,0.714,0.58,1.478,0.58,2.291c0,0.732-0.13,1.379-0.39,1.939
								c-0.26,0.561-0.604,1.141-1.03,1.74l-3.88,5.439c-0.093,0.121-0.184,0.217-0.27,0.291c-0.087,0.072-0.21,0.109-0.37,0.109h-1
								C848.349,549.82,848.252,549.777,848.179,549.69z M851.949,543c0.48-0.253,0.86-0.609,1.14-1.07
								c0.28-0.459,0.42-0.989,0.42-1.59c0-0.613-0.14-1.152-0.42-1.619s-0.66-0.827-1.14-1.08c-0.48-0.254-1.007-0.381-1.58-0.381
								c-0.56,0-1.077,0.127-1.55,0.381c-0.474,0.253-0.85,0.613-1.13,1.08c-0.28,0.467-0.42,1.006-0.42,1.619
								c0,0.601,0.14,1.131,0.42,1.59c0.28,0.461,0.653,0.817,1.12,1.07c0.466,0.254,0.986,0.381,1.56,0.381
								S851.469,543.254,851.949,543z"/>
							<path class="st1" d="M859.628,549.48c-0.734-0.36-1.293-0.83-1.68-1.41s-0.593-1.203-0.62-1.87v-0.04
								c0-0.106,0.04-0.193,0.12-0.26s0.173-0.1,0.28-0.1h0.98c0.28,0,0.46,0.146,0.54,0.439c0.2,0.721,0.57,1.257,1.11,1.609
								c0.54,0.354,1.163,0.531,1.87,0.531c0.907,0,1.66-0.277,2.26-0.83c0.6-0.554,0.9-1.316,0.9-2.291
								c0-0.893-0.3-1.603-0.9-2.129c-0.6-0.527-1.354-0.791-2.26-0.791c-0.48,0-0.867,0.061-1.16,0.181
								c-0.293,0.12-0.594,0.294-0.9,0.521c-0.173,0.133-0.316,0.229-0.43,0.289c-0.113,0.061-0.237,0.09-0.37,0.09h-0.96
								c-0.12,0-0.227-0.043-0.32-0.129c-0.094-0.088-0.134-0.191-0.12-0.311l0.62-6.66c0.04-0.333,0.207-0.5,0.5-0.5h6.92
								c0.146,0,0.26,0.04,0.34,0.12s0.12,0.193,0.12,0.34v0.74c0,0.134-0.043,0.239-0.13,0.319c-0.087,0.08-0.197,0.121-0.33,0.121
								h-5.76l-0.36,4.02c0.64-0.453,1.5-0.68,2.58-0.68c0.893,0,1.707,0.176,2.44,0.529c0.733,0.354,1.316,0.87,1.75,1.551
								c0.433,0.68,0.65,1.486,0.65,2.42c0,0.986-0.217,1.836-0.65,2.549c-0.434,0.715-1.033,1.254-1.8,1.621
								c-0.767,0.366-1.644,0.55-2.63,0.55C861.228,550.021,860.361,549.84,859.628,549.48z"/>
							<path class="st1" d="M869.458,539.301c-0.06-0.08-0.077-0.181-0.05-0.301l0.44-2.8c0.053-0.386,0.24-0.58,0.56-0.58h1.28
								c0.093,0,0.17,0.034,0.23,0.101s0.09,0.146,0.09,0.24c0,0.133-0.02,0.239-0.06,0.319l-1.04,2.7
								c-0.067,0.146-0.14,0.257-0.22,0.33s-0.2,0.109-0.36,0.109h-0.62C869.601,539.42,869.518,539.381,869.458,539.301z
								 M872.598,539.301c-0.06-0.08-0.077-0.181-0.05-0.301l0.44-2.8c0.053-0.386,0.24-0.58,0.56-0.58h1.28
								c0.093,0,0.17,0.034,0.23,0.101s0.09,0.146,0.09,0.24c0,0.133-0.02,0.239-0.06,0.319l-1.04,2.7
								c-0.067,0.146-0.14,0.257-0.22,0.33s-0.2,0.109-0.36,0.109h-0.62C872.741,539.42,872.658,539.381,872.598,539.301z"/>
							<path class="st1" d="M825.379,569.689c-0.073-0.086-0.11-0.189-0.11-0.31l0.04-0.181l5-11.699h-6.6
								c-0.133,0-0.244-0.043-0.33-0.131c-0.087-0.086-0.13-0.195-0.13-0.329v-0.74c0-0.146,0.04-0.263,0.12-0.351
								c0.08-0.086,0.193-0.129,0.34-0.129h8.16c0.146,0,0.26,0.043,0.34,0.129c0.08,0.088,0.12,0.204,0.12,0.351v0.681
								c0,0.239-0.054,0.5-0.16,0.779l-4.94,11.561c-0.067,0.146-0.14,0.267-0.22,0.359c-0.08,0.094-0.193,0.141-0.34,0.141h-1
								C825.549,569.82,825.452,569.777,825.379,569.689z"/>
							<path class="st1" d="M833.039,569.689c-0.087-0.086-0.13-0.196-0.13-0.33v-1.379c0-0.134,0.043-0.247,0.13-0.341
								c0.086-0.093,0.196-0.14,0.33-0.14h1.38c0.133,0,0.243,0.047,0.33,0.14c0.087,0.094,0.13,0.207,0.13,0.341v1.379
								c0,0.134-0.043,0.244-0.13,0.33c-0.086,0.088-0.197,0.131-0.33,0.131h-1.38C833.235,569.82,833.125,569.777,833.039,569.689z
								"/>
							<path class="st1" d="M839.769,569.48c-0.734-0.361-1.293-0.83-1.68-1.41s-0.593-1.203-0.62-1.871v-0.039
								c0-0.107,0.04-0.193,0.12-0.26s0.173-0.101,0.28-0.101h0.98c0.28,0,0.46,0.147,0.54,0.44c0.2,0.72,0.57,1.256,1.11,1.609
								s1.163,0.53,1.87,0.53c0.907,0,1.66-0.276,2.26-0.83s0.9-1.316,0.9-2.29c0-0.893-0.3-1.604-0.9-2.13s-1.354-0.79-2.26-0.79
								c-0.48,0-0.867,0.061-1.16,0.18c-0.293,0.12-0.594,0.294-0.9,0.521c-0.173,0.134-0.316,0.229-0.43,0.29
								c-0.113,0.06-0.237,0.09-0.37,0.09h-0.96c-0.12,0-0.227-0.043-0.32-0.13c-0.094-0.087-0.134-0.19-0.12-0.31l0.62-6.66
								c0.04-0.334,0.207-0.5,0.5-0.5h6.92c0.146,0,0.26,0.039,0.34,0.119s0.12,0.193,0.12,0.34v0.74c0,0.134-0.043,0.24-0.13,0.32
								c-0.087,0.08-0.197,0.12-0.33,0.12h-5.76l-0.36,4.021c0.64-0.453,1.5-0.681,2.58-0.681c0.893,0,1.707,0.177,2.44,0.53
								c0.733,0.354,1.316,0.869,1.75,1.55c0.433,0.681,0.65,1.487,0.65,2.42c0,0.987-0.217,1.837-0.65,2.55
								c-0.434,0.714-1.033,1.254-1.8,1.62c-0.767,0.366-1.644,0.55-2.63,0.55C841.369,570.02,840.502,569.84,839.769,569.48z"/>
							<path class="st1" d="M855.628,568.811c-0.8-0.807-1.22-1.938-1.26-3.391l-0.02-0.801l0.02-0.799
								c0.04-1.453,0.46-2.584,1.26-3.391s1.913-1.21,3.34-1.21c0.96,0,1.77,0.17,2.43,0.511c0.66,0.34,1.153,0.763,1.48,1.27
								s0.503,1.014,0.53,1.52c0.013,0.12-0.03,0.227-0.13,0.32c-0.1,0.094-0.21,0.141-0.33,0.141h-0.88
								c-0.133,0-0.233-0.031-0.3-0.091c-0.067-0.06-0.133-0.17-0.2-0.329c-0.24-0.654-0.57-1.117-0.99-1.391s-0.95-0.41-1.59-0.41
								c-0.84,0-1.507,0.26-2,0.78c-0.494,0.521-0.76,1.313-0.8,2.38l-0.02,0.699l0.02,0.701c0.04,1.066,0.307,1.859,0.8,2.379
								c0.493,0.521,1.16,0.781,2,0.781c0.653,0,1.187-0.137,1.6-0.41c0.414-0.273,0.74-0.736,0.98-1.391
								c0.067-0.16,0.133-0.27,0.2-0.33c0.066-0.06,0.167-0.09,0.3-0.09h0.88c0.12,0,0.23,0.047,0.33,0.141
								c0.1,0.093,0.143,0.199,0.13,0.319c-0.027,0.493-0.204,0.993-0.53,1.5s-0.82,0.934-1.48,1.28
								c-0.66,0.346-1.47,0.52-2.43,0.52C857.541,570.02,856.428,569.617,855.628,568.811z"/>
							<path class="st1" d="M865.938,569.689c-0.087-0.086-0.13-0.196-0.13-0.33v-9.479c0-0.134,0.043-0.243,0.13-0.33
								s0.197-0.13,0.33-0.13h0.84c0.133,0,0.24,0.043,0.32,0.13s0.12,0.196,0.12,0.33v0.681c0.72-0.895,1.693-1.341,2.92-1.341
								c1.466,0,2.506,0.614,3.12,1.841c0.32-0.561,0.777-1.008,1.37-1.341s1.257-0.5,1.99-0.5c1.093,0,1.986,0.374,2.68,1.12
								c0.693,0.747,1.04,1.826,1.04,3.24v5.779c0,0.134-0.043,0.244-0.13,0.33c-0.087,0.088-0.197,0.131-0.33,0.131h-0.86
								c-0.133,0-0.244-0.043-0.33-0.131c-0.087-0.086-0.13-0.196-0.13-0.33v-5.6c0-1.066-0.22-1.83-0.66-2.29s-1.02-0.69-1.74-0.69
								c-0.64,0-1.19,0.237-1.65,0.711c-0.46,0.473-0.69,1.229-0.69,2.27v5.6c0,0.134-0.043,0.244-0.13,0.33
								c-0.087,0.088-0.197,0.131-0.33,0.131h-0.88c-0.133,0-0.244-0.043-0.33-0.131c-0.087-0.086-0.13-0.196-0.13-0.33v-5.6
								c0-1.053-0.23-1.812-0.69-2.279s-1.03-0.701-1.71-0.701c-0.64,0-1.19,0.234-1.65,0.701c-0.46,0.467-0.69,1.219-0.69,2.26
								v5.619c0,0.134-0.043,0.244-0.13,0.33c-0.087,0.088-0.197,0.131-0.33,0.131h-0.88
								C866.134,569.82,866.024,569.777,865.938,569.689z"/>
							<path class="st1" d="M806.74,592.029c-0.673-0.646-1.157-1.649-1.45-3.01c-0.293-1.359-0.44-3.152-0.44-5.38
								c0-2.227,0.146-4.017,0.44-5.37c0.293-1.354,0.776-2.354,1.45-3c0.673-0.646,1.583-0.97,2.729-0.97
								c0.133,0,0.243,0.044,0.33,0.13c0.087,0.087,0.13,0.197,0.13,0.33v0.66c0,0.12-0.04,0.223-0.12,0.311
								c-0.08,0.086-0.173,0.129-0.28,0.129c-0.76,0.014-1.354,0.271-1.78,0.771c-0.427,0.5-0.733,1.307-0.919,2.42
								c-0.187,1.113-0.28,2.644-0.28,4.59c0,1.96,0.093,3.497,0.28,4.61c0.187,1.113,0.493,1.92,0.919,2.42
								c0.426,0.5,1.02,0.756,1.78,0.77c0.107,0,0.2,0.043,0.28,0.131c0.08,0.086,0.12,0.189,0.12,0.31v0.66
								c0,0.133-0.043,0.243-0.13,0.329c-0.087,0.088-0.197,0.131-0.33,0.131C808.323,593,807.413,592.676,806.74,592.029z"/>
							<path class="st1" d="M812.109,589.689c-0.08-0.086-0.12-0.196-0.12-0.33V576.3c0-0.146,0.04-0.263,0.12-0.351
								c0.08-0.086,0.187-0.129,0.32-0.129h4.52c2.013,0,3.466,0.449,4.36,1.35c0.893,0.9,1.353,2.257,1.38,4.07
								c0.013,0.387,0.02,0.906,0.02,1.56s-0.007,1.181-0.02,1.58c-0.027,1.267-0.23,2.297-0.61,3.09
								c-0.38,0.794-0.977,1.384-1.79,1.771c-0.813,0.387-1.894,0.58-3.24,0.58h-4.62
								C812.296,589.82,812.189,589.777,812.109,589.689z M816.95,588.16c0.933,0,1.676-0.131,2.23-0.391
								c0.553-0.26,0.953-0.666,1.2-1.22s0.383-1.304,0.41-2.25c0.026-0.8,0.04-1.3,0.04-1.5c0-0.213-0.014-0.706-0.04-1.479
								c-0.027-1.334-0.343-2.311-0.95-2.931s-1.604-0.93-2.99-0.93h-2.98v10.7H816.95z"/>
							<path class="st1" d="M825.459,577.33c-0.087-0.087-0.13-0.197-0.13-0.33v-1.04c0-0.134,0.043-0.247,0.13-0.341
								c0.086-0.092,0.196-0.139,0.33-0.139h1.18c0.133,0,0.247,0.047,0.34,0.139c0.093,0.094,0.14,0.207,0.14,0.341V577
								c0,0.133-0.047,0.243-0.14,0.33c-0.093,0.086-0.207,0.13-0.34,0.13h-1.18C825.656,577.46,825.546,577.416,825.459,577.33z
								 M825.619,589.689c-0.087-0.086-0.13-0.196-0.13-0.33v-9.479c0-0.134,0.043-0.243,0.13-0.33s0.197-0.13,0.33-0.13h0.88
								c0.133,0,0.243,0.043,0.33,0.13c0.086,0.087,0.13,0.196,0.13,0.33v9.479c0,0.134-0.043,0.244-0.13,0.33
								c-0.087,0.088-0.197,0.131-0.33,0.131h-0.88C825.816,589.82,825.706,589.777,825.619,589.689z"/>
							<path class="st1" d="M831.359,589.619c-0.553-0.266-0.993-0.629-1.32-1.09c-0.327-0.459-0.49-0.969-0.49-1.529
								c0-0.881,0.36-1.6,1.08-2.16c0.72-0.561,1.7-0.934,2.94-1.12l3-0.42v-0.58c0-1.373-0.793-2.06-2.38-2.06
								c-0.613,0-1.107,0.123-1.48,0.369c-0.374,0.248-0.647,0.537-0.82,0.871c-0.054,0.133-0.11,0.223-0.17,0.27
								s-0.144,0.07-0.25,0.07h-0.78c-0.12,0-0.223-0.043-0.31-0.131c-0.087-0.086-0.13-0.189-0.13-0.31
								c0-0.307,0.143-0.663,0.43-1.069c0.287-0.407,0.73-0.761,1.33-1.061c0.6-0.301,1.333-0.45,2.2-0.45
								c1.493,0,2.563,0.347,3.21,1.04c0.646,0.693,0.97,1.561,0.97,2.6v6.5c0,0.134-0.043,0.244-0.13,0.33
								c-0.087,0.088-0.197,0.131-0.33,0.131h-0.88c-0.133,0-0.24-0.043-0.32-0.131c-0.08-0.086-0.12-0.196-0.12-0.33v-0.879
								c-0.293,0.439-0.72,0.807-1.28,1.1s-1.28,0.439-2.16,0.439C832.516,590.02,831.912,589.887,831.359,589.619z
								 M835.729,587.699c0.56-0.572,0.84-1.406,0.84-2.5v-0.56l-2.34,0.341c-0.96,0.133-1.687,0.359-2.18,0.68
								s-0.74,0.72-0.74,1.199c0,0.547,0.223,0.967,0.67,1.26c0.447,0.294,0.977,0.441,1.59,0.441
								C834.449,588.561,835.169,588.273,835.729,587.699z"/>
							<path class="st1" d="M841.419,589.689c-0.087-0.086-0.13-0.196-0.13-0.33v-9.479c0-0.134,0.043-0.243,0.13-0.33
								s0.197-0.13,0.33-0.13h0.84c0.133,0,0.24,0.043,0.32,0.13s0.12,0.196,0.12,0.33v0.681c0.72-0.895,1.693-1.341,2.92-1.341
								c1.466,0,2.506,0.614,3.12,1.841c0.32-0.561,0.777-1.008,1.37-1.341s1.257-0.5,1.99-0.5c1.093,0,1.986,0.374,2.68,1.12
								c0.693,0.747,1.04,1.826,1.04,3.24v5.779c0,0.134-0.043,0.244-0.13,0.33c-0.086,0.088-0.196,0.131-0.33,0.131h-0.86
								c-0.133,0-0.244-0.043-0.33-0.131c-0.087-0.086-0.13-0.196-0.13-0.33v-5.6c0-1.066-0.22-1.83-0.66-2.29s-1.02-0.69-1.74-0.69
								c-0.64,0-1.19,0.237-1.65,0.711c-0.46,0.473-0.69,1.229-0.69,2.27v5.6c0,0.134-0.043,0.244-0.13,0.33
								c-0.087,0.088-0.197,0.131-0.33,0.131h-0.88c-0.133,0-0.244-0.043-0.33-0.131c-0.087-0.086-0.13-0.196-0.13-0.33v-5.6
								c0-1.053-0.23-1.812-0.69-2.279s-1.03-0.701-1.71-0.701c-0.64,0-1.19,0.234-1.65,0.701c-0.46,0.467-0.69,1.219-0.69,2.26
								v5.619c0,0.134-0.043,0.244-0.13,0.33c-0.087,0.088-0.197,0.131-0.33,0.131h-0.88
								C841.616,589.82,841.506,589.777,841.419,589.689z"/>
							<path class="st1" d="M859.908,588.75c-0.813-0.847-1.26-2.004-1.34-3.471l-0.02-0.68l0.02-0.66
								c0.08-1.439,0.526-2.586,1.34-3.439s1.9-1.28,3.26-1.28c1.466,0,2.603,0.467,3.41,1.399c0.807,0.934,1.21,2.201,1.21,3.801
								v0.359c0,0.134-0.043,0.244-0.13,0.33c-0.087,0.088-0.197,0.131-0.33,0.131h-6.94v0.18c0.04,0.867,0.307,1.607,0.8,2.22
								c0.493,0.614,1.146,0.921,1.96,0.921c0.626,0,1.136-0.124,1.53-0.371c0.393-0.246,0.69-0.503,0.89-0.77
								c0.12-0.16,0.213-0.257,0.28-0.29s0.18-0.05,0.34-0.05h0.88c0.12,0,0.223,0.033,0.31,0.1c0.086,0.066,0.13,0.154,0.13,0.26
								c0,0.294-0.18,0.647-0.54,1.061s-0.87,0.77-1.53,1.07c-0.66,0.299-1.417,0.449-2.27,0.449
								C861.808,590.02,860.722,589.597,859.908,588.75z M865.968,583.88v-0.06c0-0.934-0.253-1.693-0.76-2.28
								c-0.507-0.587-1.187-0.88-2.04-0.88c-0.867,0-1.547,0.293-2.04,0.88c-0.494,0.587-0.74,1.347-0.74,2.28v0.06H865.968z"/>
							<path class="st1" d="M871.068,586.32v-5.36h-1.58c-0.133,0-0.24-0.04-0.32-0.12s-0.12-0.187-0.12-0.32v-0.64
								c0-0.134,0.04-0.243,0.12-0.33s0.187-0.13,0.32-0.13h1.58v-3.34c0-0.133,0.04-0.243,0.12-0.33s0.187-0.131,0.32-0.131h0.88
								c0.133,0,0.243,0.044,0.33,0.131s0.13,0.197,0.13,0.33v3.34h2.48c0.133,0,0.243,0.043,0.33,0.13
								c0.086,0.087,0.13,0.196,0.13,0.33v0.64c0,0.134-0.043,0.24-0.13,0.32c-0.087,0.08-0.197,0.12-0.33,0.12h-2.48v5.22
								c0,0.68,0.11,1.193,0.33,1.54c0.22,0.347,0.597,0.521,1.13,0.521h1.22c0.133,0,0.24,0.043,0.32,0.129
								c0.08,0.088,0.12,0.197,0.12,0.33v0.66c0,0.134-0.04,0.244-0.12,0.33c-0.08,0.088-0.187,0.131-0.32,0.131h-1.36
								C872.101,589.82,871.068,588.653,871.068,586.32z"/>
							<path class="st1" d="M878.788,588.75c-0.813-0.847-1.26-2.004-1.34-3.471l-0.02-0.68l0.02-0.66
								c0.08-1.439,0.526-2.586,1.34-3.439s1.9-1.28,3.26-1.28c1.466,0,2.603,0.467,3.41,1.399c0.807,0.934,1.21,2.201,1.21,3.801
								v0.359c0,0.134-0.043,0.244-0.13,0.33c-0.087,0.088-0.197,0.131-0.33,0.131h-6.94v0.18c0.04,0.867,0.307,1.607,0.8,2.22
								c0.493,0.614,1.146,0.921,1.96,0.921c0.626,0,1.136-0.124,1.53-0.371c0.393-0.246,0.69-0.503,0.89-0.77
								c0.12-0.16,0.213-0.257,0.28-0.29s0.18-0.05,0.34-0.05h0.88c0.12,0,0.223,0.033,0.31,0.1c0.086,0.066,0.13,0.154,0.13,0.26
								c0,0.294-0.18,0.647-0.54,1.061s-0.87,0.77-1.53,1.07c-0.66,0.299-1.417,0.449-2.27,0.449
								C880.688,590.02,879.601,589.597,878.788,588.75z M884.848,583.88v-0.06c0-0.934-0.253-1.693-0.76-2.28
								c-0.507-0.587-1.187-0.88-2.04-0.88c-0.867,0-1.547,0.293-2.04,0.88c-0.494,0.587-0.74,1.347-0.74,2.28v0.06H884.848z"/>
							<path class="st1" d="M889.238,589.689c-0.087-0.086-0.13-0.196-0.13-0.33V579.9c0-0.134,0.043-0.247,0.13-0.34
								c0.087-0.094,0.197-0.141,0.33-0.141h0.84c0.147,0,0.263,0.043,0.35,0.13c0.086,0.087,0.13,0.204,0.13,0.351v0.879
								c0.547-0.906,1.473-1.359,2.78-1.359h0.78c0.146,0,0.26,0.04,0.34,0.12c0.08,0.079,0.12,0.193,0.12,0.34v0.739
								c0,0.135-0.04,0.244-0.12,0.33c-0.08,0.088-0.194,0.131-0.34,0.131h-1.14c-0.733,0-1.31,0.213-1.73,0.64
								c-0.42,0.427-0.63,1.007-0.63,1.74v5.899c0,0.134-0.047,0.244-0.14,0.33c-0.094,0.088-0.207,0.131-0.34,0.131h-0.9
								C889.435,589.82,889.325,589.777,889.238,589.689z"/>
							<path class="st1" d="M894.958,592.869c-0.087-0.086-0.13-0.196-0.13-0.329v-0.66c0-0.12,0.04-0.224,0.12-0.31
								c0.08-0.088,0.173-0.131,0.28-0.131c0.747-0.014,1.336-0.27,1.77-0.77c0.433-0.5,0.743-1.311,0.93-2.43
								c0.187-1.121,0.28-2.653,0.28-4.601c0-1.946-0.093-3.477-0.28-4.59c-0.187-1.113-0.497-1.92-0.93-2.42
								c-0.434-0.5-1.023-0.757-1.77-0.771c-0.107,0-0.2-0.043-0.28-0.129c-0.08-0.088-0.12-0.19-0.12-0.311v-0.66
								c0-0.133,0.043-0.243,0.13-0.33c0.087-0.086,0.19-0.13,0.31-0.13c1.146,0,2.057,0.323,2.73,0.97s1.157,1.646,1.45,3
								c0.293,1.354,0.44,3.144,0.44,5.37c0,2.228-0.147,4.021-0.44,5.38c-0.293,1.36-0.777,2.363-1.45,3.01
								s-1.583,0.971-2.73,0.971C895.147,593,895.044,592.957,894.958,592.869z"/>
						</g>
					</g>
				</g>
			</g>
			<g id="POLYLINE_00000127760003578067439760000014353952709339243688_">
				<line class="st4" x1="916.123" y1="542.951" x2="882" y2="542.951"/>
			</g>
			<g id="POLYLINE_00000170991337377343470600000001585248247013937812_">
				<line class="st4" x1="822" y1="542.951" x2="782.468" y2="542.951"/>
			</g>
		</g>
	</g>
</g>
<g id="N-TEXT">
</g>
<g id="_x32_D_x24_AG-DIAGRAM">
	<g id="POLYLINE_00000132054518742258798240000000301613649926219949_">
		<g>
			<g>
				<line class="st28" x1="75.902" y1="615.883" x2="77.902" y2="615.883"/>
				<line class="st31" x1="84.971" y1="615.883" x2="248.07" y2="615.883"/>
				<line class="st28" x1="251.604" y1="615.883" x2="253.604" y2="615.883"/>
			</g>
		</g>
	</g>
	<g id="POLYLINE_00000167384879525207481340000002318452803713174688_">
		<g>
			<g>
				<line class="st28" x1="549.78" y1="615.883" x2="551.78" y2="615.883"/>
				<line class="st31" x1="558.85" y1="615.883" x2="721.948" y2="615.883"/>
				<line class="st28" x1="725.483" y1="615.883" x2="727.483" y2="615.883"/>
			</g>
		</g>
	</g>
	<g id="POLYLINE_00000098922367311318398740000001449515541399976835_">
		<g>
			<g>
				<line class="st28" x1="312.841" y1="615.883" x2="314.841" y2="615.883"/>
				<line class="st31" x1="321.911" y1="615.883" x2="485.009" y2="615.883"/>
				<line class="st28" x1="488.544" y1="615.883" x2="490.544" y2="615.883"/>
			</g>
		</g>
	</g>
</g>
<g id="_x32_D_x24_AG-DETAILS-DIAGRAM">
	<g id="POLYLINE_00000072973331149459132080000009301979644228648372_">
		<g>
			<g>
				<line class="st28" x1="658.201" y1="156.42" x2="656.701" y2="156.42"/>
				<line class="st126" x1="650.13" y1="156.42" x2="623.848" y2="156.42"/>
				<line class="st28" x1="620.562" y1="156.42" x2="619.062" y2="156.42"/>
			</g>
		</g>
	</g>
</g>
<g id="_x32_D_x24_AG-DETAILS">
	<g id="POLYLINE_00000072241156769196695070000014497885458301616307_">
		<line class="st4" x1="97.241" y1="503.858" x2="232.266" y2="503.858"/>
	</g>
	<g id="POLYLINE_00000071522531766876679440000001236600369503670197_">
		<line class="st4" x1="97.241" y1="342.044" x2="232.266" y2="342.044"/>
	</g>
	<g id="POLYLINE_00000088840687345006765660000004663774153246558642_">
		<line class="st4" x1="138.066" y1="179.935" x2="191.44" y2="179.935"/>
	</g>
	<g id="POLYLINE_00000071541538462331826450000015758530964611302326_">
		<polyline class="st4" points="469.205,503.858 401.692,503.858 401.692,342.044 469.205,342.044 		"/>
	</g>
	<g id="POLYLINE_00000052078237207379071420000017324684386543984013_">
		<line class="st4" x1="375.005" y1="179.935" x2="428.379" y2="179.935"/>
	</g>
</g>
<g id="_x32_D_x24_AG-OBJECTS">
	<g id="POLYLINE_00000145030124693486923610000013421095874181313174_">
		<path class="st130" d="M138.683,89.319c-0.005-0.679,0.365-1.343,0.946-1.694c0.263-0.162,0.565-0.262,0.873-0.289
			c0.078-0.069,48.243,0.034,48.365-0.007c0.101,0.002,0.208,0.012,0.308,0.029c0.35,0.061,0.683,0.217,0.952,0.448
			c0.358,0.305,0.601,0.74,0.672,1.204c0.015,0.101,0.024,0.206,0.024,0.308c0,0,0,13.959,0,13.959
			c-0.001,0.066-0.003,0.14-0.011,0.206c-0.04,0.387-0.197,0.762-0.445,1.062c-0.233,0.283-0.546,0.499-0.893,0.617
			c-0.151,0.051-0.31,0.085-0.47,0.099c-0.243,0.045-48.163-0.014-48.434,0.005c-0.159-0.008-0.32-0.036-0.473-0.083
			c-0.606-0.179-1.109-0.664-1.309-1.264c-0.055-0.162-0.09-0.333-0.101-0.504c0-0.044-0.007-0.094-0.005-0.137
			C138.683,103.278,138.683,89.319,138.683,89.319z"/>
	</g>
	<g id="POLYLINE_00000022554710595775389120000008700521915083826093_">
		<path class="st130" d="M188.833,105.269c0,0,3.583,102.617,3.583,102.617c0.006,0.328,0.023,0.734,0.039,1.058
			c0.046,0.896,0.133,1.808,0.254,2.695c0.373,2.73,1.14,5.415,2.296,7.917c2.342,5.124,6.26,9.336,10.313,13.168
			c4.011,3.753,9.115,8.207,12.757,12.272c2.798,3.1,5.327,6.503,7.353,10.159c3.958,7.075,5.969,15.122,6.587,23.169
			c0.165,2.128,0.251,4.425,0.25,6.558c0,0,0,302.233,0,302.233s-0.014,1.901-0.014,1.901c-0.048,2.332-0.155,5.306-0.393,7.666
			c-0.257,2.686-0.647,5.432-1.295,8.055c-0.494,1.961-1.127,3.94-2.06,5.742c-0.642,1.237-1.434,2.423-2.451,3.382
			c-1.064,1.015-2.421,1.743-3.885,1.947c-29.153,0.14-85.681,0.14-114.828,0c-1.463-0.207-2.822-0.931-3.885-1.947
			c-1.071-1.012-1.892-2.267-2.551-3.578c-0.966-1.926-1.608-4.032-2.099-6.127c-0.621-2.696-0.992-5.501-1.226-8.256
			c-0.196-2.157-0.28-4.704-0.324-6.885c0,0-0.014-1.901-0.014-1.901V284.883c0.006-2.12,0.079-4.442,0.25-6.558
			c0.634-8.291,2.758-16.584,6.95-23.811c2.069-3.602,4.626-6.954,7.437-10.009c3.801-4.205,9.106-8.671,13.176-12.609
			c3.802-3.662,7.404-7.739,9.568-12.606c1.09-2.424,1.815-5.02,2.175-7.652c0.122-0.876,0.207-1.81,0.254-2.695
			c0,0,0.017-0.35,0.017-0.35s0.013-0.353,0.013-0.353s0.01-0.356,0.01-0.356s3.583-102.617,3.583-102.617"/>
	</g>
	<g id="POLYLINE_00000139274226925847674110000016231564345123493816_">
		<path class="st130" d="M140.674,87.328c0,0,0-7.68,0-7.68l0-0.054l0.001-0.054c0.007-0.197,0.033-0.399,0.077-0.592
			c0.148-0.653,0.512-1.256,1.022-1.691c0.563-0.484,1.303-0.758,2.045-0.756c0,0,41.866,0,41.866,0
			c0.105,0,0.221,0.006,0.325,0.017c0.196,0.02,0.396,0.06,0.585,0.118c0.415,0.125,0.806,0.339,1.135,0.621
			c0.496,0.423,0.855,1.005,1.009,1.638c0.06,0.245,0.092,0.501,0.091,0.753c0,0,0,7.68,0,7.68"/>
	</g>
	<g id="POLYLINE_00000172403819429528390380000001806441103588352944_">
		<path class="st130" d="M375.622,89.319c-0.005-0.679,0.365-1.343,0.946-1.694c0.263-0.162,0.565-0.262,0.873-0.289
			c0.078-0.069,48.243,0.034,48.365-0.007c0.102,0.002,0.208,0.012,0.308,0.029c0.35,0.061,0.683,0.217,0.952,0.448
			c0.358,0.305,0.601,0.74,0.672,1.204c0.015,0.101,0.024,0.206,0.024,0.308c0,0,0,13.959,0,13.959
			c-0.001,0.066-0.003,0.14-0.011,0.206c-0.04,0.387-0.197,0.762-0.445,1.062c-0.233,0.283-0.546,0.499-0.893,0.617
			c-0.151,0.051-0.31,0.085-0.47,0.099c-0.243,0.045-48.163-0.014-48.434,0.005c-0.159-0.008-0.32-0.036-0.473-0.083
			c-0.606-0.179-1.109-0.664-1.309-1.264c-0.055-0.162-0.09-0.333-0.101-0.504c0-0.044-0.007-0.094-0.005-0.137
			C375.622,103.278,375.622,89.319,375.622,89.319z"/>
	</g>
	<g id="POLYLINE_00000029013112982208049290000012517620553006827450_">
		<path class="st130" d="M425.772,105.269c0,0,3.583,102.617,3.583,102.617c0.006,0.328,0.023,0.734,0.039,1.058
			c0.046,0.896,0.133,1.808,0.254,2.695c0.373,2.73,1.14,5.415,2.296,7.917c2.342,5.124,6.26,9.336,10.313,13.168
			c4.011,3.753,9.115,8.207,12.757,12.272c2.798,3.1,5.327,6.503,7.353,10.159c3.958,7.075,5.969,15.122,6.587,23.169
			c0.165,2.128,0.251,4.425,0.25,6.558c0,0,0,302.233,0,302.233l-0.014,1.901c-0.048,2.332-0.155,5.306-0.393,7.666
			c-0.257,2.686-0.647,5.432-1.295,8.055c-0.494,1.961-1.127,3.94-2.06,5.742c-0.642,1.237-1.434,2.423-2.451,3.382
			c-1.064,1.015-2.421,1.743-3.885,1.947c-29.153,0.14-85.681,0.14-114.828,0c-1.463-0.207-2.822-0.931-3.885-1.947
			c-1.071-1.012-1.892-2.267-2.551-3.578c-0.966-1.926-1.608-4.032-2.099-6.127c-0.621-2.696-0.992-5.501-1.226-8.256
			c-0.196-2.157-0.28-4.704-0.324-6.885c0,0-0.014-1.901-0.014-1.901V284.883c0.006-2.12,0.079-4.442,0.25-6.558
			c0.634-8.291,2.758-16.584,6.95-23.811c2.069-3.602,4.626-6.954,7.437-10.009c3.801-4.205,9.105-8.671,13.176-12.609
			c3.802-3.662,7.404-7.739,9.568-12.606c1.09-2.424,1.815-5.02,2.175-7.652c0.122-0.876,0.207-1.81,0.254-2.695
			c0,0,0.017-0.35,0.017-0.35s0.013-0.353,0.013-0.353s0.01-0.356,0.01-0.356s3.583-102.617,3.583-102.617"/>
	</g>
	<g id="POLYLINE_00000003826216422544150150000012744256011914721164_">
		<path class="st130" d="M377.613,87.328v-7.68l0-0.054c0,0,0.001-0.054,0.001-0.054c0.007-0.197,0.033-0.399,0.077-0.592
			c0.148-0.653,0.512-1.256,1.022-1.691c0.563-0.484,1.303-0.758,2.046-0.756c0,0,41.866,0,41.866,0
			c0.105,0,0.221,0.006,0.325,0.017c0.196,0.02,0.396,0.06,0.585,0.118c0.415,0.125,0.806,0.339,1.135,0.621
			c0.496,0.423,0.855,1.005,1.009,1.638c0.06,0.245,0.092,0.501,0.091,0.753c0,0,0,7.68,0,7.68"/>
	</g>
	<g id="POLYLINE_00000183951278341993882540000012790051451404844197_">
		<line class="st130" x1="619.99" y1="76.501" x2="657.273" y2="76.501"/>
	</g>
	<g id="POLYLINE_00000112624519459983844140000004716970883557950339_">
		<path class="st130" d="M577.412,503.858c0,0,0-218.975,0-218.975c0.012-0.511,0.003-1.467,0.023-1.972
			c0.032-1.24,0.099-2.703,0.195-3.939c0.224-2.902,0.64-5.87,1.285-8.709c0.154-0.659,0.368-1.539,0.548-2.19
			c1.458-5.385,3.948-10.506,7.304-14.963c5.178-6.988,12.415-12.437,18.471-18.609c3.495-3.569,6.649-7.575,8.767-12.123
			c1.085-2.31,1.903-4.762,2.439-7.257c0.301-1.399,0.521-2.85,0.654-4.275c0.936-21.938,3.937-112.258,4.688-132.639
			c-0.015-0.299-0.107-0.596-0.265-0.851c-0.254-0.415-0.684-0.719-1.162-0.816c-0.121-0.023-0.246-0.04-0.37-0.038
			c0,0-2.292,0-2.292,0c-0.081-0.003-0.166,0.005-0.247,0.01c-0.417,0.033-0.827,0.15-1.198,0.342
			c-0.492,0.254-0.914,0.64-1.21,1.107c-0.294,0.462-0.464,1.001-0.488,1.548c-0.002,0.048-0.003,0.093-0.003,0.14
			c0,0.031,0,6.339-0.001,6.368c-0.002,0.136-0.02,0.27-0.052,0.402c-0.097,0.395-0.332,0.752-0.656,0.998
			c-0.1,0.082-0.215,0.137-0.325,0.203c-0.083,0.047-0.165,0.111-0.239,0.171c-0.234,0.194-0.423,0.446-0.547,0.724
			c-0.075,0.17-0.126,0.348-0.151,0.531c-0.01,0.071-0.016,0.143-0.018,0.214c0.002-0.027-0.003,14.018-0.001,14.019
			c-0.002,0.547,0.233,1.086,0.635,1.457c0.091,0.087,0.193,0.161,0.298,0.229c0.09,0.059,0.187,0.104,0.272,0.17
			c0.16,0.117,0.301,0.26,0.414,0.423c0.173,0.248,0.283,0.541,0.314,0.842c0.024,0.788-3.533,101.088-3.535,101.842
			c-0.029,0.903-0.096,1.843-0.2,2.74c-0.36,3.149-1.236,6.249-2.628,9.099c-2.717,5.627-7.298,10.109-11.836,14.296
			c-5.354,4.904-11.067,9.962-15.265,15.922c-3.609,5.023-6.251,10.752-7.802,16.736c-1.519,5.8-2.107,11.863-2.108,17.849
			c0,0,0,302.233,0,302.233s0.014,1.901,0.014,1.901s0.041,1.828,0.041,1.828s0.068,1.756,0.068,1.756s0.044,0.852,0.044,0.852
			s0.05,0.834,0.05,0.834l0.057,0.816c0,0,0.063,0.799,0.063,0.799c0.252,2.946,0.656,5.961,1.365,8.836
			c0.74,2.918,1.757,5.872,3.679,8.234c0.744,0.896,1.644,1.685,2.694,2.204c0.876,0.436,1.85,0.677,2.828,0.703
			c2.318,0.017,5.888,0.001,8.206-0.019c1.519-0.034,3.106-0.093,4.607-0.317c2.517-0.359,5.001-1.083,7.305-2.159
			c2.491-1.159,4.795-2.717,6.881-4.499c1.168-0.975,2.335-2.126,3.405-3.211c0.723-0.704,7.28-7.943,8.234-9.018
			c3.362-3.584,6.974-7.232,11.57-9.174c2.017-0.854,4.213-1.276,6.402-1.267c2.265-0.01,4.535,0.445,6.611,1.356
			c4.499,1.968,8.05,5.554,11.361,9.086l6.315,6.985c0,0,0.953,1.023,0.953,1.023l0.966,1.01c0,0,0.49,0.498,0.49,0.498
			s0.495,0.493,0.495,0.493s0.502,0.486,0.502,0.486s0.508,0.479,0.508,0.479l0.557,0.509c0,0,0.282,0.251,0.282,0.251
			s0.284,0.248,0.284,0.248s0.286,0.246,0.286,0.246s0.289,0.243,0.289,0.243s0.291,0.24,0.291,0.24
			c2.364,1.939,5.009,3.579,7.866,4.682c1.958,0.757,4.032,1.277,6.114,1.543c2.833,0.379,6.254,0.254,9.113,0.288
			c0,0,3.103,0,3.103,0s0.074,0,0.074,0s0.074-0.001,0.074-0.001s0.074-0.002,0.074-0.002s0.074-0.003,0.074-0.003
			c0.266-0.016,0.539-0.033,0.803-0.078c0.652-0.103,1.291-0.301,1.884-0.589c1.993-0.96,3.381-2.808,4.38-4.729
			c0.843-1.628,1.444-3.408,1.916-5.177c0.671-2.556,1.087-5.229,1.364-7.856c0.226-2.092,0.357-4.483,0.428-6.602
			c0.024-0.976,0.057-2.766,0.055-3.73c-0.007-1.142,0.014-302.321-0.007-303.369c-0.02-0.985-0.05-2.328-0.105-3.309
			c-0.234-4.496-0.853-9.046-1.996-13.405c-1.609-6.211-4.397-12.139-8.211-17.301c-4.132-5.711-9.68-10.608-14.856-15.357
			c-4.538-4.185-9.119-8.67-11.836-14.296c-1.392-2.849-2.268-5.95-2.628-9.099c-0.104-0.895-0.171-1.839-0.2-2.74
			c-0.026-0.505-3.518-101.108-3.544-101.593c-0.003-0.088,0.001-0.191,0.012-0.28c0.036-0.3,0.151-0.592,0.328-0.836
			c0.122-0.168,0.275-0.318,0.447-0.434c0.148-0.096,0.309-0.177,0.442-0.295c0.294-0.245,0.514-0.58,0.626-0.946
			c0.057-0.186,0.086-0.385,0.086-0.58c0,0,0-13.959,0-13.959l0-0.03c0,0-0.001-0.03-0.001-0.03s-0.001-0.03-0.001-0.03
			c-0.007-0.156-0.033-0.316-0.077-0.466c-0.105-0.36-0.315-0.693-0.598-0.94c0,0-0.013-0.011-0.013-0.011s-0.013-0.011-0.013-0.011
			s-0.013-0.011-0.013-0.011s-0.013-0.011-0.013-0.011s-0.014-0.011-0.014-0.011s-0.014-0.011-0.014-0.011s-0.027-0.021-0.027-0.021
			s-0.028-0.021-0.028-0.021s-0.028-0.02-0.028-0.02s-0.028-0.02-0.028-0.02l-0.029-0.019c0,0-0.029-0.019-0.029-0.019
			s-0.029-0.018-0.029-0.018l-0.029-0.018c-0.138-0.072-0.275-0.161-0.392-0.265c-0.385-0.333-0.615-0.842-0.612-1.352
			c0.001-0.015-0.001-6.354-0.001-6.371c-0.001-0.115-0.01-0.241-0.024-0.356c-0.031-0.248-0.093-0.497-0.182-0.731
			c-0.147-0.386-0.373-0.745-0.658-1.045c-0.313-0.33-0.7-0.592-1.124-0.759c-0.313-0.123-0.647-0.198-0.982-0.216
			c0,0-0.035-0.002-0.035-0.002s-0.035-0.001-0.035-0.001s-0.035-0.001-0.035-0.001s-0.035-0.001-0.035-0.001s-0.035,0-0.035,0
			s-2.292,0-2.292,0c-0.123,0.003-0.249,0.011-0.37,0.038c-0.273,0.058-0.534,0.179-0.752,0.354
			c-0.275,0.22-0.484,0.521-0.591,0.856c0.452,20.085,3.769,111.231,4.604,133.096c0.369,3.979,1.39,7.914,3.093,11.532
			c1.848,3.963,4.487,7.535,7.449,10.735c5.625,6.071,12.573,11.258,17.897,17.615c3.948,4.638,7.007,10.064,8.776,15.9
			c1.132,3.675,1.821,7.535,2.171,11.362c0.836,63.703,0.036,249.202,0.296,310.335c-0.031,3.08-0.188,6.336-0.548,9.399
			c0,0-0.115,0.928-0.115,0.928l-0.123,0.885c0,0-0.064,0.42-0.064,0.42c-0.149,0.955-0.352,1.973-0.6,2.911
			c-0.451,1.722-0.986,3.491-2.06,4.937c-0.448,0.596-1.013,1.114-1.7,1.416c-0.671,0.294-1.417,0.353-2.141,0.365
			c-1.914-0.001-4.535,0.014-6.431-0.046c-1.039-0.036-2.105-0.117-3.131-0.285c-3.41-0.528-6.614-2.031-9.335-4.132
			c-2.546-1.942-4.862-4.436-7.021-6.802c-5.665-6.176-11.385-13.527-19.36-16.743c-4.298-1.747-9.136-2.11-13.659-1.1
			c-4.506,0.994-8.543,3.479-11.997,6.477c-5.716,4.899-10.57,11.678-16.146,16.722c-1.558,1.379-3.258,2.632-5.106,3.594
			c-1.866,0.977-3.903,1.651-5.983,1.984c-1.307,0.217-2.682,0.281-4.005,0.309c-1.563,0.018-4.371,0.044-5.942,0.01
			c-0.502-0.024-1.013-0.086-1.49-0.25c-0.709-0.238-1.313-0.724-1.787-1.295c-0.736-0.888-1.22-1.961-1.607-3.039
			c-1.059-3.015-1.465-6.251-1.753-9.42C577.08,594.197,577.537,507.872,577.412,503.858z"/>
	</g>
	<g id="POLYLINE_00000031889920493298079550000012444496184943715207_">
		<line class="st130" x1="586.824" y1="615.883" x2="690.439" y2="615.883"/>
	</g>
	<g id="POLYLINE_00000031167894703852514530000005363009330590097050_">
		<path class="st130" d="M917.561,238.986c0.031-22.71-11.556-44.124-30.585-56.52c-16.548-10.855-37.385-13.868-56.33-8.146
			c-18.57,5.534-34.081,19.082-42.063,36.739c-8.048,17.626-8.049,38.221-0.001,55.848c8.153,18.033,24.129,31.745,43.19,37.069
			c18.643,5.281,39,2.157,55.202-8.471C906.003,283.11,917.592,261.697,917.561,238.986z"/>
	</g>
	<g id="POLYLINE_00000129920810605241593080000001685920918876324008_">
		<path class="st130" d="M873.276,238.985c0.021-7.789-3.991-15.203-10.523-19.445c-11.937-7.769-27.938-3.119-33.852,9.837
			c-2.766,6.032-2.766,13.183,0,19.214c5.913,12.956,21.915,17.607,33.851,9.839C869.284,254.188,873.297,246.774,873.276,238.985z"
			/>
	</g>
	<g id="POLYLINE_00000051379686203930535840000000442767055648374436_">
		<path class="st130" d="M866.983,238.985c0.019-5.67-2.915-11.092-7.672-14.177c-8.7-5.664-20.372-2.273-24.681,7.172
			c-2.016,4.387-2.016,9.622,0,14.009c4.309,9.445,15.981,12.837,24.68,7.173C864.068,250.077,867.002,244.655,866.983,238.985z"/>
	</g>
	<g id="POLYLINE_00000150788023077967623990000009873879417427398038_">
		<path class="st130" d="M917.561,445.901c0.031-22.71-11.556-44.124-30.585-56.52c-16.548-10.855-37.385-13.868-56.33-8.146
			c-18.57,5.534-34.081,19.082-42.063,36.738c-8.048,17.626-8.049,38.221-0.001,55.848c8.153,18.033,24.129,31.745,43.19,37.069
			c18.643,5.281,39,2.157,55.202-8.471C906.003,490.024,917.592,468.612,917.561,445.901z"/>
	</g>
	<g id="POLYLINE_00000096054128748972806490000005703663498303197323_">
		<path class="st130" d="M875.074,445.9c0.021-8.395-4.297-16.377-11.337-20.951c-12.865-8.37-30.097-3.362-36.472,10.599
			c-2.98,6.502-2.981,14.199-0.001,20.702c6.375,13.961,23.607,18.97,36.472,10.6C870.776,462.276,875.095,454.295,875.074,445.9z"
			/>
	</g>
</g>
<g id="_x32_D_x24_AG-OUTLINE">
	<g id="POLYLINE_00000096769064766735073250000011311730224494994603_">
		<path class="st132" d="M695.315,615.88c4.467-0.178,6.946-4.421,8.262-8.21c1.074-3.093,1.646-6.38,2.02-9.626
			c0.4-3.546,0.542-7.353,0.547-10.928c-0.265-14.516,0.55-287.684-0.338-309.822c-0.638-6.95-2.326-13.887-5.453-20.149
			c-3.142-6.399-7.818-11.934-12.958-16.823c-5.851-5.637-13.006-11.136-17.175-18.212c-1.725-2.921-2.918-6.161-3.483-9.506
			c-0.166-0.971-0.288-1.987-0.36-2.97c-0.021-0.3-0.048-0.737-0.06-1.04c0,0-0.013-0.353-0.013-0.353l-0.01-0.356L662.76,106.65
			c-0.005-0.139,0.007-0.283,0.035-0.419c0.078-0.389,0.289-0.751,0.591-1.008c0.076-0.061,0.159-0.127,0.244-0.176
			c0.085-0.048,0.173-0.1,0.251-0.158c0.294-0.213,0.528-0.51,0.667-0.845c0.081-0.194,0.131-0.406,0.147-0.616
			c0,0,0.002-0.03,0.002-0.03s0.002-0.03,0.002-0.03s0.001-0.03,0.001-0.03s0.001-0.03,0.001-0.03s0-0.029,0-0.029
			s0-13.959,0-13.959c0.002-0.5-0.195-0.999-0.539-1.362c-0.083-0.091-0.175-0.168-0.273-0.242c0,0-0.028-0.02-0.028-0.02
			s-0.028-0.02-0.028-0.02l-0.029-0.019l-0.029-0.019c0,0-0.029-0.018-0.029-0.018s-0.029-0.018-0.029-0.018s-0.03-0.017-0.03-0.017
			s-0.03-0.016-0.03-0.016s-0.025-0.014-0.025-0.014s-0.025-0.014-0.025-0.014s-0.025-0.015-0.025-0.015s-0.025-0.015-0.025-0.015
			c-0.51-0.312-0.839-0.898-0.844-1.496l-0.001-6.365c-0.001-0.08-0.003-0.167-0.01-0.247c-0.021-0.26-0.074-0.519-0.158-0.765
			c-0.333-1.001-1.197-1.795-2.223-2.042c-0.213-0.052-0.432-0.083-0.651-0.09c-3.119,0.001-39.08-0.014-42.183,0.005
			c-0.442,0.03-0.878,0.154-1.269,0.363c-0.779,0.411-1.366,1.164-1.574,2.021c-0.052,0.212-0.083,0.432-0.09,0.651
			c0.001,0.033-0.003,0.073-0.002,0.105c0,0-0.001,6.336-0.001,6.336c0,0.097-0.008,0.197-0.024,0.293
			c-0.054,0.333-0.206,0.651-0.431,0.903c-0.106,0.12-0.231,0.226-0.365,0.313c-0.149,0.091-0.307,0.171-0.44,0.285
			c-0.267,0.218-0.475,0.507-0.598,0.828c-0.087,0.226-0.132,0.47-0.132,0.712c0,0,0,13.959,0,13.959
			c0.001,0.036,0,0.083,0.004,0.119c0.009,0.155,0.037,0.312,0.083,0.461c0.108,0.356,0.318,0.68,0.599,0.923
			c0.183,0.167,0.373,0.24,0.559,0.383c0.445,0.34,0.711,0.896,0.698,1.456c0,0-3.535,101.266-3.535,101.266
			c-0.005,0.195-0.014,0.519-0.023,0.708c-0.018,0.429-0.051,0.952-0.087,1.381c-0.092,1.088-0.241,2.188-0.448,3.259
			c-0.702,3.689-2.196,7.211-4.277,10.331c-4.418,6.666-11.537,12.061-17.19,17.653c-4.962,4.828-9.401,10.325-12.369,16.612
			c-3.067,6.393-4.657,13.446-5.206,20.493c-0.662,24.232-0.063,293.911-0.237,310.664c0.061,3.423,0.247,7.085,0.711,10.483
			c0.402,2.926,0.987,5.891,2.013,8.668c0.845,2.248,1.994,4.474,3.846,6.053c0.617,0.519,1.315,0.95,2.068,1.24
			c0.694,0.268,1.435,0.418,2.178,0.447C581.948,615.88,695.315,615.88,695.315,615.88z"/>
	</g>
	<g id="POLYLINE_00000102543223860622794650000013548222268518586781_">
		<path class="st132" d="M188.833,87.328v-7.68c-0.002-0.044,0.001-0.096-0.003-0.14c-0.009-0.207-0.039-0.415-0.089-0.615
			c-0.162-0.659-0.544-1.261-1.071-1.687c-0.416-0.338-0.919-0.567-1.447-0.658c-0.142-0.024-0.287-0.039-0.431-0.044
			c-0.028-0.008-20.982,0.002-21.038-0.002c-0.096,0.006-20.955-0.007-21.038,0.002c-0.143,0.005-0.29,0.02-0.431,0.044
			c-0.528,0.091-1.032,0.32-1.447,0.658c-0.517,0.418-0.896,1.006-1.062,1.65c-0.061,0.235-0.095,0.479-0.101,0.723
			c0,0-0.001,0.035-0.001,0.035s0,0.035,0,0.035s0,7.68,0,7.68c-0.427-0.001-0.853,0.141-1.194,0.398
			c-0.339,0.253-0.593,0.617-0.713,1.022c-0.045,0.149-0.072,0.304-0.081,0.46c-0.015,0.125,0.004,13.945-0.003,14.071
			c0,0.193,0.028,0.386,0.084,0.571c0.12,0.405,0.374,0.769,0.713,1.022c0.341,0.257,0.767,0.399,1.194,0.398
			c0,0-3.583,102.617-3.583,102.617c-0.003,0.196-0.016,0.518-0.023,0.708c-0.026,0.543-0.063,1.176-0.117,1.719
			c-0.111,1.185-0.294,2.379-0.545,3.541c-0.403,1.864-1.004,3.695-1.783,5.435c-2.659,5.987-7.454,10.709-12.205,15.086
			c-4.377,4.037-9.5,8.56-13.174,13.177c-3.052,3.753-5.629,7.941-7.501,12.405c-2.73,6.465-4.031,13.492-4.389,20.48
			c-0.243,43.666-0.124,262.464-0.058,310.408c0.081,2.276,0.232,5.054,0.51,7.348c0.321,2.744,0.794,5.538,1.586,8.19
			c0.504,1.672,1.14,3.328,2.02,4.841c0.604,1.029,1.332,2.011,2.227,2.807c1.103,0.995,2.505,1.673,3.991,1.814
			c28.603,0.034,85.134,0.058,113.733,0.034c0.389-0.013,0.782-0.054,1.163-0.132c1.413-0.28,2.698-1.044,3.708-2.061
			c0.93-0.928,1.667-2.043,2.269-3.206c0.844-1.631,1.443-3.405,1.916-5.177c0.802-3.06,1.24-6.252,1.509-9.401
			c0.196-2.157,0.28-4.704,0.324-6.885c0.033-57.117,0.014-245.157,0.007-305.274c-0.039-2.779-0.209-5.7-0.547-8.461
			c-0.918-7.733-3.272-15.381-7.391-22.023c-2.262-3.69-5.043-7.087-8.048-10.196c-4.307-4.469-10.041-9.192-14.319-13.684
			c-2.966-3.123-5.628-6.635-7.303-10.627c-0.918-2.166-1.55-4.465-1.895-6.791c-0.148-0.986-0.248-2.023-0.301-3.019
			c-0.698-20.383-2.899-82.587-3.623-103.675c0.427,0.001,0.853-0.141,1.194-0.398c0.339-0.253,0.593-0.617,0.713-1.022
			c0.045-0.149,0.072-0.304,0.081-0.46c0.015-0.125-0.004-13.945,0.003-14.071c0-0.193-0.028-0.386-0.084-0.571
			c-0.12-0.405-0.374-0.769-0.713-1.022C189.686,87.469,189.26,87.328,188.833,87.328z"/>
	</g>
	<g id="POLYLINE_00000044899854732357051620000002244898721516154772_">
		<path class="st132" d="M425.772,87.328c0,0,0-7.68,0-7.68c-0.002-0.044,0.001-0.096-0.003-0.14
			c-0.009-0.207-0.039-0.415-0.089-0.615c-0.162-0.659-0.544-1.261-1.071-1.687c-0.416-0.338-0.919-0.567-1.447-0.658
			c-0.142-0.024-0.287-0.039-0.431-0.044c-0.028-0.008-20.982,0.002-21.038-0.002c-0.096,0.006-20.955-0.007-21.038,0.002
			c-0.143,0.005-0.29,0.02-0.431,0.044c-0.528,0.091-1.032,0.32-1.447,0.658c-0.517,0.418-0.896,1.006-1.062,1.65
			c-0.061,0.235-0.095,0.479-0.101,0.723c0,0-0.001,0.035-0.001,0.035s0,0.035,0,0.035v7.68c-0.427-0.001-0.853,0.141-1.194,0.398
			c-0.339,0.253-0.593,0.617-0.713,1.022c-0.045,0.149-0.072,0.304-0.081,0.46c-0.015,0.125,0.004,13.945-0.003,14.071
			c0,0.193,0.028,0.386,0.084,0.571c0.12,0.405,0.374,0.769,0.713,1.022c0.341,0.257,0.767,0.399,1.194,0.398
			c0,0-3.583,102.617-3.583,102.617c-0.003,0.196-0.016,0.518-0.023,0.708c-0.026,0.543-0.063,1.176-0.117,1.719
			c-0.111,1.185-0.294,2.379-0.545,3.541c-0.403,1.864-1.004,3.695-1.783,5.435c-2.659,5.987-7.454,10.709-12.205,15.086
			c-4.377,4.037-9.5,8.56-13.174,13.177c-3.052,3.753-5.629,7.941-7.501,12.405c-2.73,6.465-4.031,13.492-4.389,20.48
			c-0.04,1.003-0.1,2.307-0.105,3.306c-0.291,0.465,0.194,302.65-0.008,303.372c0.001,0,0.014,1.902,0.014,1.902
			s0.041,1.828,0.041,1.828s0.068,1.756,0.068,1.756s0.044,0.852,0.044,0.852s0.05,0.834,0.05,0.834s0.057,0.816,0.057,0.816
			l0.063,0.799c0,0,0.069,0.781,0.069,0.781c0.257,2.686,0.648,5.432,1.295,8.055c0.529,2.101,1.216,4.214,2.262,6.121
			c0.657,1.192,1.466,2.327,2.495,3.226c0.602,0.526,1.283,0.969,2.022,1.276c0.675,0.282,1.398,0.452,2.127,0.503
			c28.531-0.028,85.063,0.066,113.588,0.012c0.413-0.018,0.829-0.069,1.232-0.16c1.416-0.313,2.689-1.112,3.686-2.153
			c0.924-0.956,1.653-2.095,2.248-3.279c0.878-1.748,1.486-3.651,1.96-5.546c0.708-2.882,1.113-5.882,1.365-8.836
			c0.196-2.157,0.28-4.704,0.324-6.885c0.033-57.118,0.014-245.157,0.007-305.274c-0.043-3.115-0.251-6.353-0.673-9.441
			c-1.016-7.633-3.481-15.149-7.647-21.654c-2.416-3.823-5.394-7.315-8.579-10.517c-4.171-4.199-9.772-8.848-13.804-13.177
			c-2.871-3.081-5.421-6.553-7.017-10.472c-0.9-2.186-1.507-4.503-1.829-6.844c-0.122-0.876-0.207-1.81-0.254-2.695
			c-0.698-20.383-2.899-82.586-3.623-103.675c0.427,0.001,0.853-0.141,1.194-0.398c0.339-0.253,0.593-0.617,0.713-1.022
			c0.045-0.149,0.072-0.304,0.081-0.46c0.015-0.125-0.004-13.945,0.003-14.071c0-0.193-0.028-0.386-0.084-0.571
			c-0.12-0.405-0.374-0.769-0.713-1.022C426.625,87.469,426.199,87.328,425.772,87.328z"/>
	</g>
	<g id="POLYLINE_00000155106335683537711160000000587558906864275117_">
		<path class="st132" d="M917.561,238.986c0.029-23.021-11.851-44.651-31.294-56.977c-16.434-10.485-36.915-13.324-55.581-7.702
			c-18.873,5.616-34.54,19.457-42.437,37.496c-7.488,16.946-7.612,36.546-0.336,53.585c7.788,18.41,23.61,32.569,42.77,38.272
			c18.665,5.623,39.147,2.786,55.581-7.699C905.707,283.636,917.59,262.007,917.561,238.986z"/>
	</g>
	<g id="POLYLINE_00000064331756111092823250000014474388566979851653_">
		<path class="st132" d="M917.561,445.901c0.029-23.021-11.851-44.651-31.294-56.977c-16.434-10.485-36.915-13.324-55.581-7.702
			c-18.873,5.616-34.54,19.457-42.437,37.496c-7.488,16.946-7.612,36.546-0.336,53.585c7.788,18.41,23.61,32.569,42.77,38.272
			c18.665,5.623,39.147,2.786,55.581-7.699C905.707,490.551,917.59,468.922,917.561,445.901z"/>
	</g>
</g>
</svg>
